<svg xmlns="http://www.w3.org/2000/svg" viewBox="0 0 31.37 22.85"><defs><style>.cls-1{fill:#fff;}</style></defs><g id="Layer_2" data-name="Layer 2"><g id="Layer_1-2" data-name="Layer 1"><path class="cls-1" d="M29,22.85H2.35A2.35,2.35,0,0,1,0,20.5V2.35A2.36,2.36,0,0,1,2.35,0H29a2.35,2.35,0,0,1,2.35,2.35V20.5A2.35,2.35,0,0,1,29,22.85ZM2.35,1.39a1,1,0,0,0-1,1V20.5a1,1,0,0,0,1,1H29a1,1,0,0,0,1-1V2.35a1,1,0,0,0-1-1Z"/><path class="cls-1" d="M5.49,4.34H4.1V18.51H5.49Z"/><path class="cls-1" d="M8.48,4.34H7.09V18.51H8.48Z"/><path class="cls-1" d="M11.43,4.34H10V18.51h1.4Z"/><path class="cls-1" d="M13.55,4.34H12.16V18.51h1.39Z"/><path class="cls-1" d="M17.52,4.34H16.13V18.51h1.39Z"/><path class="cls-1" d="M19.2,4.34H17.8V18.51h1.4Z"/><path class="cls-1" d="M21.94,4.34H20.55V18.51h1.39Z"/><path class="cls-1" d="M25.2,4.34H23.8V18.51h1.4Z"/><path class="cls-1" d="M27.73,4.34H26.34V18.51h1.39Z"/></g></g></svg>