<svg width="25" height="27" viewBox="0 0 25 27" fill="none" xmlns="http://www.w3.org/2000/svg">
<g clip-path="url(#clip0)">
<path d="M6.64062 27.3125C7.93504 27.3125 8.98438 26.1792 8.98438 24.7812C8.98438 23.3833 7.93504 22.25 6.64062 22.25C5.34621 22.25 4.29688 23.3833 4.29688 24.7812C4.29688 26.1792 5.34621 27.3125 6.64062 27.3125Z" fill="white"/>
<path d="M21.0938 27.3125C22.3882 27.3125 23.4375 26.1792 23.4375 24.7812C23.4375 23.3833 22.3882 22.25 21.0938 22.25C19.7993 22.25 18.75 23.3833 18.75 24.7812C18.75 26.1792 19.7993 27.3125 21.0938 27.3125Z" fill="white"/>
<path d="M21.4844 20.5625H5.85938C5.47266 20.5625 5.14414 20.2571 5.08672 19.844L2.84297 3.6875H0V2H3.51562C3.90234 2 4.23086 2.30544 4.28828 2.71845L4.8332 6.64062H23.4375C23.668 6.64062 23.8863 6.75031 24.0352 6.94058C24.1836 7.13084 24.2469 7.38228 24.2074 7.62739L22.2543 19.8618C22.1898 20.2668 21.8648 20.5625 21.4844 20.5625Z" fill="white"/>
</g>
<defs>
<clipPath id="clip0">
<rect width="25" height="27" fill="white"/>
</clipPath>
</defs>
</svg>
