<svg width="28" height="28" viewBox="0 0 28 28" fill="none" xmlns="http://www.w3.org/2000/svg">
<path d="M22.75 11.8125C22.75 5.78156 17.8434 0.875 11.8125 0.875C5.78156 0.875 0.875 5.78156 0.875 11.8125C0.875 17.8434 5.78156 22.75 11.8125 22.75C17.8434 22.75 22.75 17.8434 22.75 11.8125ZM11.8125 21.875C6.26412 21.875 1.75 17.3609 1.75 11.8125C1.75 6.26412 6.26412 1.75 11.8125 1.75C17.3609 1.75 21.875 6.26412 21.875 11.8125C21.875 17.3609 17.3609 21.875 11.8125 21.875Z" fill="#66727C"/>
<path d="M26.9215 25.0657L21.0397 19.1835C20.4915 19.8686 19.869 20.4912 19.1838 21.0394L25.0656 26.9216C25.2366 27.0926 25.5136 27.0926 25.6842 26.9216L26.9215 25.6843C27.0925 25.5137 27.0925 25.2363 26.9215 25.0657Z" fill="#66727C"/>
</svg>
