<svg width="45" height="45" viewBox="0 0 45 45" fill="none" xmlns="http://www.w3.org/2000/svg">
<path d="M2.8125 11.25H26.7188V32.3438H18.2812" stroke="black" stroke-width="2" stroke-miterlimit="10" stroke-linejoin="round"/>
<path d="M33.75 35.1562C35.3033 35.1562 36.5625 33.8971 36.5625 32.3438C36.5625 30.7904 35.3033 29.5312 33.75 29.5312C32.1967 29.5312 30.9375 30.7904 30.9375 32.3438C30.9375 33.8971 32.1967 35.1562 33.75 35.1562Z" stroke="black" stroke-width="2" stroke-miterlimit="10" stroke-linejoin="round"/>
<path d="M11.25 35.1562C12.8033 35.1562 14.0625 33.8971 14.0625 32.3438C14.0625 30.7904 12.8033 29.5312 11.25 29.5312C9.6967 29.5312 8.4375 30.7904 8.4375 32.3438C8.4375 33.8971 9.6967 35.1562 11.25 35.1562Z" stroke="black" stroke-width="2" stroke-miterlimit="10" stroke-linejoin="round"/>
<path d="M26.7188 32.3438V16.875H35.1562L40.7812 23.9062V32.3438H36.5625" stroke="black" stroke-width="2" stroke-miterlimit="10" stroke-linejoin="round"/>
<path d="M5.625 16.875H18.2812" stroke="black" stroke-width="2" stroke-miterlimit="10" stroke-linejoin="round"/>
<path d="M2.8125 22.5H15.4688" stroke="black" stroke-width="2" stroke-miterlimit="10" stroke-linejoin="round"/>
</svg>
