<svg xmlns="http://www.w3.org/2000/svg" viewBox="0 0 43.61 34.52"><defs><style>.cls-1{fill:#fff;fill-rule:evenodd;}</style></defs><g id="Layer_2" data-name="Layer 2"><g id="Layer_1-2" data-name="Layer 1"><path class="cls-1" d="M24.08,20.9H11.36a2.27,2.27,0,0,0,0,4.54H24.08a2.27,2.27,0,0,0,0-4.54ZM0,30.89a3.63,3.63,0,0,0,3.63,3.63H40a3.63,3.63,0,0,0,3.63-3.63V3.63A3.64,3.64,0,0,0,40,0H3.63A3.64,3.64,0,0,0,0,3.63V30.89ZM6.54,4.54H37.07a2,2,0,0,1,2,2V9.09H4.54V6.54A2,2,0,0,1,6.54,4.54Zm-2,11.81H39.07V28a2,2,0,0,1-2,2H6.54a2,2,0,0,1-2-2V16.35Z"/></g></g></svg>