<svg width="700" height="538" viewBox="0 0 700 538" fill="none" xmlns="http://www.w3.org/2000/svg">
<rect x="174.5" y="197.996" width="329" height="130.852" stroke="#F61067" stroke-width="5"/>
<rect x="2.56102" y="2.43266" width="357.009" height="157.811" transform="matrix(0.999645 -0.0266295 0.0247626 0.999693 156.984 184.857)" stroke="#F61067" stroke-width="5"/>
<rect x="2.6407" y="2.33921" width="392.055" height="192.012" transform="matrix(0.998037 -0.0626191 0.0582416 0.998303 136.494 175.092)" stroke="#F61067" stroke-width="5"/>
<rect x="2.73877" y="2.21451" width="435.184" height="228.243" transform="matrix(0.994038 -0.109036 0.101468 0.994839 110.178 169.637)" stroke="#F61067" stroke-width="5"/>
<rect x="2.9232" y="1.94401" width="513.759" height="284.974" transform="matrix(0.978947 -0.204117 0.190335 0.981719 59.1769 173.106)" stroke="#F61067" stroke-width="5"/>
<rect x="3.07591" y="1.67075" width="603.84" height="349.698" transform="matrix(0.956012 -0.293329 0.274354 0.961629 -0.323072 180.09)" stroke="#F61067" stroke-width="5"/>
<path d="M241.427 261.99C245.395 263.206 248.435 265.254 250.547 268.134C252.659 270.95 253.715 274.438 253.715 278.598C253.715 282.31 252.723 285.574 250.739 288.39C248.819 291.142 246.035 293.286 242.387 294.822C238.803 296.358 234.579 297.126 229.715 297.126H204.179C201.555 297.126 199.539 296.422 198.131 295.014C196.723 293.606 196.019 291.59 196.019 288.966V237.606C196.019 234.982 196.723 232.966 198.131 231.558C199.539 230.15 201.555 229.446 204.179 229.446H228.755C235.859 229.446 241.491 231.046 245.651 234.246C249.875 237.382 251.987 241.638 251.987 247.014C251.987 250.47 251.059 253.542 249.203 256.23C247.347 258.854 244.755 260.774 241.427 261.99ZM213.203 256.038H225.779C229.107 256.038 231.539 255.526 233.075 254.502C234.611 253.478 235.379 251.846 235.379 249.606C235.379 247.238 234.611 245.51 233.075 244.422C231.539 243.334 229.107 242.79 225.779 242.79H213.203V256.038ZM227.507 283.782C231.027 283.782 233.523 283.238 234.995 282.15C236.531 280.998 237.299 279.142 237.299 276.582C237.299 274.022 236.531 272.198 234.995 271.11C233.523 269.958 231.027 269.382 227.507 269.382H213.203V283.782H227.507ZM285.425 297.894C280.241 297.894 275.665 296.902 271.697 294.918C267.793 292.87 264.753 289.99 262.577 286.278C260.465 282.566 259.409 278.214 259.409 273.222C259.409 268.23 260.465 263.91 262.577 260.262C264.753 256.55 267.793 253.702 271.697 251.718C275.601 249.734 280.177 248.742 285.425 248.742C290.673 248.742 295.249 249.734 299.153 251.718C303.057 253.702 306.065 256.55 308.177 260.262C310.353 263.91 311.441 268.23 311.441 273.222C311.441 278.214 310.353 282.566 308.177 286.278C306.065 289.99 303.057 292.87 299.153 294.918C295.249 296.902 290.673 297.894 285.425 297.894ZM285.425 285.126C291.505 285.126 294.545 281.158 294.545 273.222C294.545 265.286 291.505 261.318 285.425 261.318C279.345 261.318 276.305 265.286 276.305 273.222C276.305 281.158 279.345 285.126 285.425 285.126ZM361.73 284.742C363.33 286.342 364.13 288.166 364.13 290.214C364.13 292.198 363.362 293.958 361.826 295.494C360.29 297.03 358.498 297.798 356.45 297.798C354.338 297.798 352.45 296.934 350.786 295.206L339.554 283.494L328.418 295.206C326.754 296.934 324.866 297.798 322.754 297.798C320.706 297.798 318.914 297.03 317.378 295.494C315.842 293.958 315.074 292.198 315.074 290.214C315.074 288.166 315.874 286.342 317.474 284.742L329.378 272.838L318.434 262.086C316.834 260.486 316.034 258.662 316.034 256.614C316.034 254.566 316.77 252.774 318.242 251.238C319.778 249.702 321.57 248.934 323.618 248.934C325.794 248.934 327.682 249.83 329.282 251.622L339.554 262.086L349.922 251.622C351.586 249.894 353.474 249.03 355.586 249.03C357.634 249.03 359.394 249.798 360.866 251.334C362.402 252.806 363.17 254.534 363.17 256.518C363.17 258.566 362.37 260.422 360.77 262.086L349.826 272.838L361.73 284.742ZM408.392 281.958C409.864 281.958 411.048 282.534 411.944 283.686C412.904 284.838 413.384 286.342 413.384 288.198C413.384 290.758 412.136 292.71 409.64 294.054C407.464 295.142 404.872 296.07 401.864 296.838C398.92 297.542 396.2 297.894 393.704 297.894C388.456 297.894 383.88 296.902 379.976 294.918C376.072 292.934 373.064 290.086 370.952 286.374C368.84 282.662 367.784 278.31 367.784 273.318C367.784 268.582 368.776 264.358 370.76 260.646C372.808 256.87 375.624 253.958 379.208 251.91C382.856 249.798 386.952 248.742 391.496 248.742C395.912 248.742 399.784 249.702 403.112 251.622C406.44 253.542 409 256.262 410.792 259.782C412.648 263.302 413.576 267.43 413.576 272.166C413.576 273.638 413.224 274.79 412.52 275.622C411.88 276.39 410.92 276.774 409.64 276.774H384.296C384.744 279.846 385.736 282.054 387.272 283.398C388.808 284.742 391.08 285.414 394.088 285.414C395.688 285.414 397.16 285.254 398.504 284.934C399.848 284.55 401.352 284.038 403.016 283.398C403.976 283.014 404.904 282.694 405.8 282.438C406.76 282.118 407.624 281.958 408.392 281.958ZM391.976 260.262C389.736 260.262 387.944 260.998 386.6 262.47C385.256 263.878 384.456 265.958 384.2 268.71H399.272C398.888 263.078 396.456 260.262 391.976 260.262ZM439.991 297.894C435.703 297.894 432.087 297.574 429.143 296.934C426.199 296.294 423.607 295.27 421.367 293.862C420.471 293.414 419.767 292.646 419.255 291.558C418.743 290.47 418.487 289.254 418.487 287.91C418.487 286.182 418.935 284.774 419.831 283.686C420.791 282.534 421.975 281.958 423.383 281.958C424.343 281.958 425.239 282.086 426.071 282.342C426.903 282.534 427.927 282.886 429.143 283.398C431.191 284.102 432.983 284.646 434.519 285.03C436.119 285.414 438.135 285.606 440.567 285.606C442.295 285.606 443.639 285.382 444.599 284.934C445.623 284.422 446.135 283.718 446.135 282.822C446.135 282.118 445.879 281.574 445.367 281.19C444.919 280.806 444.023 280.454 442.679 280.134C441.335 279.75 439.063 279.238 435.863 278.598C430.167 277.51 426.039 275.878 423.479 273.702C420.983 271.462 419.735 268.326 419.735 264.294C419.735 261.35 420.631 258.694 422.423 256.326C424.279 253.958 426.807 252.102 430.007 250.758C433.207 249.414 436.791 248.742 440.759 248.742C443.639 248.742 446.423 249.094 449.111 249.798C451.863 250.502 454.295 251.494 456.407 252.774C458.391 253.926 459.383 255.782 459.383 258.342C459.383 260.134 458.903 261.638 457.943 262.854C456.983 264.07 455.799 264.678 454.391 264.678C452.727 264.678 450.743 264.134 448.439 263.046C446.903 262.342 445.527 261.83 444.311 261.51C443.159 261.126 441.783 260.934 440.183 260.934C438.583 260.934 437.335 261.19 436.439 261.702C435.543 262.15 435.095 262.822 435.095 263.718C435.095 264.742 435.703 265.542 436.919 266.118C438.199 266.694 440.695 267.334 444.407 268.038C450.615 269.126 454.999 270.79 457.559 273.03C460.119 275.206 461.399 278.374 461.399 282.534C461.399 287.206 459.447 290.95 455.543 293.766C451.703 296.518 446.519 297.894 439.991 297.894ZM476.025 297.702C473.337 297.702 471.097 296.806 469.305 295.014C467.577 293.222 466.713 291.014 466.713 288.39C466.713 285.766 467.577 283.558 469.305 281.766C471.097 279.974 473.337 279.078 476.025 279.078C478.649 279.078 480.825 279.974 482.553 281.766C484.345 283.558 485.241 285.766 485.241 288.39C485.241 291.014 484.345 293.222 482.553 295.014C480.825 296.806 478.649 297.702 476.025 297.702Z" fill="#F61067"/>
<path d="M633.895 477.91C634.071 477.526 634.351 477.334 634.735 477.334C634.975 477.334 635.191 477.414 635.383 477.574C635.575 477.734 635.671 477.934 635.671 478.174C635.671 478.318 635.639 478.446 635.575 478.558L628.831 493.102C628.751 493.278 628.631 493.414 628.471 493.51C628.327 493.606 628.175 493.654 628.015 493.654C627.775 493.654 627.559 493.574 627.367 493.414C627.191 493.27 627.103 493.078 627.103 492.838C627.103 492.71 627.135 492.582 627.199 492.454L628.879 488.83L624.127 478.558C624.063 478.446 624.031 478.326 624.031 478.198C624.031 477.958 624.135 477.75 624.343 477.574C624.567 477.398 624.807 477.31 625.063 477.31C625.223 477.31 625.375 477.358 625.519 477.454C625.679 477.55 625.799 477.686 625.879 477.862L629.887 486.862L633.895 477.91ZM642.365 477.262C645.293 477.262 646.757 478.798 646.757 481.87V488.398C646.757 488.686 646.669 488.918 646.493 489.094C646.333 489.27 646.109 489.358 645.821 489.358C645.533 489.358 645.301 489.27 645.125 489.094C644.949 488.918 644.861 488.686 644.861 488.398V487.246C644.557 487.934 644.093 488.47 643.469 488.854C642.845 489.222 642.125 489.406 641.309 489.406C640.557 489.406 639.861 489.254 639.221 488.95C638.597 488.646 638.101 488.222 637.733 487.678C637.365 487.134 637.181 486.534 637.181 485.878C637.181 484.998 637.405 484.318 637.853 483.838C638.301 483.342 639.037 482.99 640.061 482.782C641.085 482.558 642.509 482.446 644.333 482.446H644.861V481.654C644.861 480.694 644.661 479.99 644.261 479.542C643.877 479.094 643.245 478.87 642.365 478.87C641.277 478.87 640.173 479.166 639.053 479.758C638.621 480.03 638.317 480.166 638.141 480.166C637.949 480.166 637.789 480.094 637.661 479.95C637.533 479.806 637.469 479.622 637.469 479.398C637.469 479.174 637.533 478.982 637.661 478.822C637.805 478.646 638.029 478.47 638.333 478.294C638.893 477.974 639.525 477.726 640.229 477.55C640.949 477.358 641.661 477.262 642.365 477.262ZM641.573 487.87C642.533 487.87 643.317 487.55 643.925 486.91C644.549 486.254 644.861 485.414 644.861 484.39V483.694H644.429C643.021 483.694 641.949 483.758 641.213 483.886C640.477 483.998 639.949 484.198 639.629 484.486C639.325 484.758 639.173 485.166 639.173 485.71C639.173 486.334 639.397 486.854 639.845 487.27C640.309 487.67 640.885 487.87 641.573 487.87ZM658.739 477.91C658.915 477.526 659.195 477.334 659.579 477.334C659.819 477.334 660.035 477.414 660.227 477.574C660.419 477.734 660.515 477.934 660.515 478.174C660.515 478.318 660.483 478.446 660.419 478.558L653.675 493.102C653.595 493.278 653.475 493.414 653.315 493.51C653.171 493.606 653.019 493.654 652.859 493.654C652.619 493.654 652.403 493.574 652.211 493.414C652.035 493.27 651.947 493.078 651.947 492.838C651.947 492.71 651.979 492.582 652.043 492.454L653.723 488.83L648.971 478.558C648.907 478.446 648.875 478.326 648.875 478.198C648.875 477.958 648.979 477.75 649.187 477.574C649.411 477.398 649.651 477.31 649.907 477.31C650.067 477.31 650.219 477.358 650.363 477.454C650.523 477.55 650.643 477.686 650.723 477.862L654.731 486.862L658.739 477.91ZM663.579 484.942C663.419 484.942 663.283 484.886 663.171 484.774C663.059 484.646 662.995 484.478 662.979 484.27L662.403 473.398C662.371 473.03 662.467 472.742 662.691 472.534C662.915 472.31 663.211 472.198 663.579 472.198C663.947 472.198 664.243 472.31 664.467 472.534C664.691 472.742 664.787 473.03 664.755 473.398L664.179 484.27C664.163 484.494 664.099 484.662 663.987 484.774C663.875 484.886 663.739 484.942 663.579 484.942ZM663.603 489.358C663.219 489.358 662.899 489.238 662.643 488.998C662.387 488.742 662.259 488.414 662.259 488.014C662.259 487.614 662.387 487.286 662.643 487.03C662.899 486.774 663.219 486.646 663.603 486.646C663.971 486.646 664.275 486.774 664.515 487.03C664.771 487.286 664.899 487.614 664.899 488.014C664.899 488.414 664.771 488.742 664.515 488.998C664.275 489.238 663.971 489.358 663.603 489.358Z" fill="#F61067"/>
<path d="M389.971 512.156C390.131 511.772 390.395 511.58 390.763 511.58C391.003 511.58 391.219 511.66 391.411 511.82C391.603 511.98 391.699 512.18 391.699 512.42C391.699 512.532 391.675 512.652 391.627 512.78L387.643 522.86C387.547 523.068 387.403 523.236 387.211 523.364C387.035 523.476 386.835 523.532 386.611 523.532C386.403 523.532 386.203 523.476 386.011 523.364C385.835 523.236 385.699 523.068 385.603 522.86L382.291 514.436L379.003 522.86C378.923 523.068 378.787 523.236 378.595 523.364C378.403 523.476 378.195 523.532 377.971 523.532C377.763 523.532 377.563 523.476 377.371 523.364C377.179 523.236 377.035 523.068 376.939 522.86L372.955 512.804C372.907 512.676 372.883 512.564 372.883 512.468C372.883 512.212 372.987 511.996 373.195 511.82C373.419 511.644 373.659 511.556 373.915 511.556C374.299 511.556 374.571 511.748 374.731 512.132L378.019 520.988L381.403 512.204C381.499 511.996 381.627 511.836 381.787 511.724C381.963 511.612 382.147 511.556 382.339 511.556C382.547 511.556 382.731 511.612 382.891 511.724C383.067 511.836 383.195 511.996 383.275 512.204L386.659 520.964L389.971 512.156ZM403.098 520.748C403.274 520.748 403.426 520.82 403.554 520.964C403.682 521.108 403.746 521.292 403.746 521.516C403.746 521.916 403.466 522.284 402.906 522.62C402.33 522.956 401.722 523.212 401.082 523.388C400.442 523.548 399.818 523.628 399.21 523.628C397.402 523.628 395.97 523.092 394.914 522.02C393.874 520.948 393.354 519.468 393.354 517.58C393.354 516.38 393.586 515.324 394.05 514.412C394.514 513.484 395.162 512.764 395.994 512.252C396.842 511.74 397.802 511.484 398.874 511.484C400.394 511.484 401.602 511.98 402.498 512.972C403.394 513.964 403.842 515.308 403.842 517.004C403.842 517.324 403.778 517.556 403.65 517.7C403.522 517.844 403.314 517.916 403.026 517.916H395.298C395.442 520.668 396.746 522.044 399.21 522.044C399.834 522.044 400.37 521.964 400.818 521.804C401.266 521.628 401.746 521.396 402.258 521.108C402.674 520.868 402.954 520.748 403.098 520.748ZM398.898 512.996C397.874 512.996 397.05 513.316 396.426 513.956C395.818 514.596 395.458 515.5 395.346 516.668H402.138C402.106 515.484 401.81 514.58 401.25 513.956C400.69 513.316 399.906 512.996 398.898 512.996ZM406.915 506.42C407.315 506.42 407.635 506.58 407.875 506.9C408.131 507.204 408.259 507.668 408.259 508.292C408.259 509.556 407.851 510.62 407.035 511.484C406.875 511.644 406.699 511.724 406.507 511.724C406.331 511.724 406.179 511.668 406.051 511.556C405.923 511.428 405.859 511.284 405.859 511.124C405.859 510.948 405.923 510.796 406.051 510.668C406.467 510.252 406.731 509.724 406.843 509.084C406.491 509.052 406.195 508.916 405.955 508.676C405.731 508.436 405.619 508.132 405.619 507.764C405.619 507.364 405.739 507.044 405.979 506.804C406.235 506.548 406.547 506.42 406.915 506.42ZM417.271 511.532C417.943 511.484 418.279 511.756 418.279 512.348C418.279 512.604 418.207 512.812 418.063 512.972C417.919 513.116 417.671 513.204 417.319 513.236L416.599 513.308C415.527 513.404 414.727 513.788 414.199 514.46C413.687 515.116 413.431 515.892 413.431 516.788V522.62C413.431 522.94 413.343 523.18 413.167 523.34C412.991 523.5 412.759 523.58 412.471 523.58C412.183 523.58 411.943 523.5 411.751 523.34C411.575 523.164 411.487 522.924 411.487 522.62V512.492C411.487 512.188 411.583 511.956 411.775 511.796C411.967 511.62 412.199 511.532 412.471 511.532C412.727 511.532 412.943 511.62 413.119 511.796C413.295 511.956 413.383 512.18 413.383 512.468V513.812C413.719 513.108 414.191 512.572 414.799 512.204C415.423 511.836 416.135 511.62 416.935 511.556L417.271 511.532ZM428.762 520.748C428.938 520.748 429.09 520.82 429.218 520.964C429.346 521.108 429.41 521.292 429.41 521.516C429.41 521.916 429.13 522.284 428.57 522.62C427.994 522.956 427.386 523.212 426.746 523.388C426.106 523.548 425.482 523.628 424.874 523.628C423.066 523.628 421.634 523.092 420.578 522.02C419.538 520.948 419.018 519.468 419.018 517.58C419.018 516.38 419.25 515.324 419.714 514.412C420.178 513.484 420.826 512.764 421.658 512.252C422.506 511.74 423.466 511.484 424.538 511.484C426.058 511.484 427.266 511.98 428.162 512.972C429.058 513.964 429.506 515.308 429.506 517.004C429.506 517.324 429.442 517.556 429.314 517.7C429.186 517.844 428.978 517.916 428.69 517.916H420.962C421.106 520.668 422.41 522.044 424.874 522.044C425.498 522.044 426.034 521.964 426.482 521.804C426.93 521.628 427.41 521.396 427.922 521.108C428.338 520.868 428.618 520.748 428.762 520.748ZM424.562 512.996C423.538 512.996 422.714 513.316 422.09 513.956C421.482 514.596 421.122 515.5 421.01 516.668H427.802C427.77 515.484 427.474 514.58 426.914 513.956C426.354 513.316 425.57 512.996 424.562 512.996ZM449.521 511.484C452.449 511.484 453.913 513.02 453.913 516.092V522.62C453.913 522.908 453.825 523.14 453.649 523.316C453.489 523.492 453.265 523.58 452.977 523.58C452.689 523.58 452.457 523.492 452.281 523.316C452.105 523.14 452.017 522.908 452.017 522.62V521.468C451.713 522.156 451.249 522.692 450.625 523.076C450.001 523.444 449.281 523.628 448.465 523.628C447.713 523.628 447.017 523.476 446.377 523.172C445.753 522.868 445.257 522.444 444.889 521.9C444.521 521.356 444.337 520.756 444.337 520.1C444.337 519.22 444.561 518.54 445.009 518.06C445.457 517.564 446.193 517.212 447.217 517.004C448.241 516.78 449.665 516.668 451.489 516.668H452.017V515.876C452.017 514.916 451.817 514.212 451.417 513.764C451.033 513.316 450.401 513.092 449.521 513.092C448.433 513.092 447.329 513.388 446.209 513.98C445.777 514.252 445.473 514.388 445.297 514.388C445.105 514.388 444.945 514.316 444.817 514.172C444.689 514.028 444.625 513.844 444.625 513.62C444.625 513.396 444.689 513.204 444.817 513.044C444.961 512.868 445.185 512.692 445.489 512.516C446.049 512.196 446.681 511.948 447.385 511.772C448.105 511.58 448.817 511.484 449.521 511.484ZM448.729 522.092C449.689 522.092 450.473 521.772 451.081 521.132C451.705 520.476 452.017 519.636 452.017 518.612V517.916H451.585C450.177 517.916 449.105 517.98 448.369 518.108C447.633 518.22 447.105 518.42 446.785 518.708C446.481 518.98 446.329 519.388 446.329 519.932C446.329 520.556 446.553 521.076 447.001 521.492C447.465 521.892 448.041 522.092 448.729 522.092ZM468.483 523.628C467.395 523.628 466.427 523.38 465.579 522.884C464.747 522.388 464.099 521.684 463.635 520.772C463.187 519.86 462.963 518.804 462.963 517.604C462.963 516.404 463.195 515.34 463.659 514.412C464.139 513.484 464.803 512.764 465.651 512.252C466.499 511.74 467.475 511.484 468.579 511.484C469.187 511.484 469.787 511.572 470.379 511.748C470.987 511.908 471.515 512.148 471.963 512.468C472.251 512.66 472.451 512.852 472.563 513.044C472.691 513.22 472.755 513.42 472.755 513.644C472.755 513.868 472.691 514.052 472.563 514.196C472.451 514.34 472.299 514.412 472.107 514.412C471.995 514.412 471.875 514.38 471.747 514.316C471.619 514.252 471.507 514.188 471.411 514.124C471.331 514.06 471.275 514.02 471.243 514.004C470.827 513.732 470.427 513.516 470.043 513.356C469.675 513.196 469.219 513.116 468.675 513.116C467.507 513.116 466.595 513.516 465.939 514.316C465.299 515.1 464.979 516.196 464.979 517.604C464.979 519.012 465.299 520.1 465.939 520.868C466.595 521.636 467.507 522.02 468.675 522.02C469.219 522.02 469.683 521.94 470.067 521.78C470.467 521.62 470.867 521.404 471.267 521.132C471.443 521.02 471.611 520.924 471.771 520.844C471.931 520.764 472.067 520.724 472.179 520.724C472.355 520.724 472.499 520.796 472.611 520.94C472.739 521.084 472.803 521.268 472.803 521.492C472.803 521.7 472.747 521.892 472.635 522.068C472.523 522.228 472.315 522.412 472.011 522.62C471.563 522.924 471.019 523.172 470.379 523.364C469.755 523.54 469.123 523.628 468.483 523.628ZM479.991 523.628C478.887 523.628 477.911 523.38 477.063 522.884C476.231 522.388 475.583 521.684 475.119 520.772C474.671 519.844 474.447 518.772 474.447 517.556C474.447 516.34 474.671 515.276 475.119 514.364C475.583 513.436 476.231 512.724 477.063 512.228C477.911 511.732 478.887 511.484 479.991 511.484C481.095 511.484 482.071 511.732 482.919 512.228C483.767 512.724 484.415 513.436 484.863 514.364C485.327 515.276 485.559 516.34 485.559 517.556C485.559 518.772 485.327 519.844 484.863 520.772C484.415 521.684 483.767 522.388 482.919 522.884C482.071 523.38 481.095 523.628 479.991 523.628ZM479.991 522.02C481.143 522.02 482.023 521.644 482.631 520.892C483.255 520.124 483.567 519.012 483.567 517.556C483.567 516.132 483.255 515.036 482.631 514.268C482.007 513.484 481.127 513.092 479.991 513.092C478.855 513.092 477.975 513.484 477.351 514.268C476.727 515.036 476.415 516.132 476.415 517.556C476.415 518.996 476.719 520.1 477.327 520.868C477.951 521.636 478.839 522.02 479.991 522.02ZM497.336 511.532C497.64 511.532 497.872 511.62 498.032 511.796C498.208 511.972 498.296 512.204 498.296 512.492V522.644C498.296 522.916 498.208 523.14 498.032 523.316C497.872 523.492 497.64 523.58 497.336 523.58C497.048 523.58 496.816 523.5 496.64 523.34C496.48 523.164 496.4 522.94 496.4 522.668V521.468C496.032 522.172 495.512 522.708 494.84 523.076C494.184 523.444 493.44 523.628 492.608 523.628C491.216 523.628 490.168 523.244 489.464 522.476C488.76 521.692 488.408 520.54 488.408 519.02V512.492C488.408 512.204 488.496 511.972 488.672 511.796C488.848 511.62 489.088 511.532 489.392 511.532C489.696 511.532 489.928 511.62 490.088 511.796C490.264 511.972 490.352 512.204 490.352 512.492V518.972C490.352 520.012 490.56 520.78 490.976 521.276C491.392 521.756 492.048 521.996 492.944 521.996C493.968 521.996 494.792 521.668 495.416 521.012C496.04 520.34 496.352 519.46 496.352 518.372V512.492C496.352 512.204 496.44 511.972 496.616 511.796C496.792 511.62 497.032 511.532 497.336 511.532ZM507.693 511.532C508.365 511.484 508.701 511.756 508.701 512.348C508.701 512.604 508.629 512.812 508.485 512.972C508.341 513.116 508.093 513.204 507.741 513.236L507.021 513.308C505.949 513.404 505.149 513.788 504.621 514.46C504.109 515.116 503.853 515.892 503.853 516.788V522.62C503.853 522.94 503.765 523.18 503.589 523.34C503.413 523.5 503.181 523.58 502.893 523.58C502.605 523.58 502.365 523.5 502.173 523.34C501.997 523.164 501.909 522.924 501.909 522.62V512.492C501.909 512.188 502.005 511.956 502.197 511.796C502.389 511.62 502.621 511.532 502.893 511.532C503.149 511.532 503.365 511.62 503.541 511.796C503.717 511.956 503.805 512.18 503.805 512.468V513.812C504.141 513.108 504.613 512.572 505.221 512.204C505.845 511.836 506.557 511.62 507.357 511.556L507.693 511.532ZM511.354 523.58C511.066 523.58 510.826 523.5 510.634 523.34C510.458 523.164 510.37 522.924 510.37 522.62V512.492C510.37 512.188 510.458 511.956 510.634 511.796C510.826 511.62 511.066 511.532 511.354 511.532C511.642 511.532 511.874 511.62 512.05 511.796C512.226 511.956 512.314 512.188 512.314 512.492V522.62C512.314 522.94 512.226 523.18 512.05 523.34C511.874 523.5 511.642 523.58 511.354 523.58ZM511.354 509.012C510.97 509.012 510.658 508.9 510.418 508.676C510.178 508.452 510.058 508.156 510.058 507.788C510.058 507.436 510.178 507.148 510.418 506.924C510.658 506.7 510.97 506.588 511.354 506.588C511.738 506.588 512.05 506.7 512.29 506.924C512.53 507.148 512.65 507.436 512.65 507.788C512.65 508.156 512.53 508.452 512.29 508.676C512.05 508.9 511.738 509.012 511.354 509.012ZM524.996 520.748C525.172 520.748 525.324 520.82 525.452 520.964C525.58 521.108 525.644 521.292 525.644 521.516C525.644 521.916 525.364 522.284 524.804 522.62C524.228 522.956 523.62 523.212 522.98 523.388C522.34 523.548 521.716 523.628 521.108 523.628C519.3 523.628 517.868 523.092 516.812 522.02C515.772 520.948 515.252 519.468 515.252 517.58C515.252 516.38 515.484 515.324 515.948 514.412C516.412 513.484 517.06 512.764 517.892 512.252C518.74 511.74 519.7 511.484 520.772 511.484C522.292 511.484 523.5 511.98 524.396 512.972C525.292 513.964 525.74 515.308 525.74 517.004C525.74 517.324 525.676 517.556 525.548 517.7C525.42 517.844 525.212 517.916 524.924 517.916H517.196C517.34 520.668 518.644 522.044 521.108 522.044C521.732 522.044 522.268 521.964 522.716 521.804C523.164 521.628 523.644 521.396 524.156 521.108C524.572 520.868 524.852 520.748 524.996 520.748ZM520.796 512.996C519.772 512.996 518.948 513.316 518.324 513.956C517.716 514.596 517.356 515.5 517.244 516.668H524.036C524.004 515.484 523.708 514.58 523.148 513.956C522.588 513.316 521.804 512.996 520.796 512.996ZM534.388 511.532C535.06 511.484 535.396 511.756 535.396 512.348C535.396 512.604 535.324 512.812 535.18 512.972C535.036 513.116 534.788 513.204 534.436 513.236L533.716 513.308C532.644 513.404 531.844 513.788 531.316 514.46C530.804 515.116 530.548 515.892 530.548 516.788V522.62C530.548 522.94 530.46 523.18 530.284 523.34C530.108 523.5 529.876 523.58 529.588 523.58C529.3 523.58 529.06 523.5 528.868 523.34C528.692 523.164 528.604 522.924 528.604 522.62V512.492C528.604 512.188 528.7 511.956 528.892 511.796C529.084 511.62 529.316 511.532 529.588 511.532C529.844 511.532 530.06 511.62 530.236 511.796C530.412 511.956 530.5 512.18 530.5 512.468V513.812C530.836 513.108 531.308 512.572 531.916 512.204C532.54 511.836 533.252 511.62 534.052 511.556L534.388 511.532ZM547.189 523.628C546.453 523.628 545.749 523.54 545.077 523.364C544.421 523.188 543.837 522.94 543.325 522.62C543.037 522.428 542.829 522.252 542.701 522.092C542.589 521.916 542.533 521.708 542.533 521.468C542.533 521.26 542.589 521.092 542.701 520.964C542.829 520.82 542.989 520.748 543.181 520.748C543.373 520.748 543.653 520.868 544.021 521.108C544.501 521.396 544.973 521.628 545.437 521.804C545.917 521.964 546.509 522.044 547.213 522.044C548.077 522.044 548.749 521.892 549.229 521.588C549.709 521.284 549.949 520.844 549.949 520.268C549.949 519.916 549.861 519.636 549.685 519.428C549.509 519.204 549.205 519.012 548.773 518.852C548.341 518.676 547.709 518.5 546.877 518.324C545.469 518.02 544.461 517.612 543.853 517.1C543.245 516.588 542.941 515.892 542.941 515.012C542.941 514.324 543.133 513.716 543.517 513.188C543.901 512.66 544.429 512.244 545.101 511.94C545.789 511.636 546.565 511.484 547.429 511.484C548.053 511.484 548.653 511.572 549.229 511.748C549.821 511.908 550.341 512.14 550.789 512.444C551.333 512.828 551.605 513.228 551.605 513.644C551.605 513.852 551.541 514.028 551.413 514.172C551.285 514.316 551.133 514.388 550.957 514.388C550.765 514.388 550.477 514.252 550.093 513.98C549.645 513.692 549.221 513.468 548.821 513.308C548.421 513.148 547.925 513.068 547.333 513.068C546.581 513.068 545.973 513.236 545.509 513.572C545.061 513.908 544.837 514.356 544.837 514.916C544.837 515.268 544.917 515.556 545.077 515.78C545.253 515.988 545.533 516.18 545.917 516.356C546.317 516.516 546.885 516.676 547.621 516.836C548.709 517.076 549.549 517.34 550.141 517.628C550.749 517.916 551.181 518.268 551.437 518.684C551.693 519.1 551.821 519.628 551.821 520.268C551.821 521.276 551.397 522.092 550.549 522.716C549.701 523.324 548.581 523.628 547.189 523.628ZM563.832 520.748C564.008 520.748 564.16 520.82 564.288 520.964C564.416 521.108 564.48 521.292 564.48 521.516C564.48 521.916 564.2 522.284 563.64 522.62C563.064 522.956 562.456 523.212 561.816 523.388C561.176 523.548 560.552 523.628 559.944 523.628C558.136 523.628 556.704 523.092 555.648 522.02C554.608 520.948 554.088 519.468 554.088 517.58C554.088 516.38 554.32 515.324 554.784 514.412C555.248 513.484 555.896 512.764 556.728 512.252C557.576 511.74 558.536 511.484 559.608 511.484C561.128 511.484 562.336 511.98 563.232 512.972C564.128 513.964 564.576 515.308 564.576 517.004C564.576 517.324 564.512 517.556 564.384 517.7C564.256 517.844 564.048 517.916 563.76 517.916H556.032C556.176 520.668 557.48 522.044 559.944 522.044C560.568 522.044 561.104 521.964 561.552 521.804C562 521.628 562.48 521.396 562.992 521.108C563.408 520.868 563.688 520.748 563.832 520.748ZM559.632 512.996C558.608 512.996 557.784 513.316 557.16 513.956C556.552 514.596 556.192 515.5 556.08 516.668H562.872C562.84 515.484 562.544 514.58 561.984 513.956C561.424 513.316 560.64 512.996 559.632 512.996ZM573.224 511.532C573.896 511.484 574.232 511.756 574.232 512.348C574.232 512.604 574.16 512.812 574.016 512.972C573.872 513.116 573.624 513.204 573.272 513.236L572.552 513.308C571.48 513.404 570.68 513.788 570.152 514.46C569.64 515.116 569.384 515.892 569.384 516.788V522.62C569.384 522.94 569.296 523.18 569.12 523.34C568.944 523.5 568.712 523.58 568.424 523.58C568.136 523.58 567.896 523.5 567.704 523.34C567.528 523.164 567.44 522.924 567.44 522.62V512.492C567.44 512.188 567.536 511.956 567.728 511.796C567.92 511.62 568.152 511.532 568.424 511.532C568.68 511.532 568.896 511.62 569.072 511.796C569.248 511.956 569.336 512.18 569.336 512.468V513.812C569.672 513.108 570.144 512.572 570.752 512.204C571.376 511.836 572.088 511.62 572.888 511.556L573.224 511.532ZM585.052 512.132C585.228 511.748 585.508 511.556 585.892 511.556C586.132 511.556 586.348 511.636 586.54 511.796C586.732 511.956 586.828 512.156 586.828 512.396C586.828 512.54 586.796 512.668 586.732 512.78L582.052 522.86C581.956 523.068 581.812 523.236 581.62 523.364C581.428 523.476 581.22 523.532 580.996 523.532C580.788 523.532 580.588 523.476 580.396 523.364C580.204 523.236 580.052 523.068 579.94 522.86L575.284 512.78C575.22 512.668 575.188 512.548 575.188 512.42C575.188 512.18 575.292 511.972 575.5 511.796C575.724 511.62 575.964 511.532 576.22 511.532C576.38 511.532 576.532 511.58 576.676 511.676C576.836 511.772 576.956 511.908 577.036 512.084L581.044 521.084L585.052 512.132ZM589.94 523.58C589.652 523.58 589.412 523.5 589.22 523.34C589.044 523.164 588.956 522.924 588.956 522.62V512.492C588.956 512.188 589.044 511.956 589.22 511.796C589.412 511.62 589.652 511.532 589.94 511.532C590.228 511.532 590.46 511.62 590.636 511.796C590.812 511.956 590.9 512.188 590.9 512.492V522.62C590.9 522.94 590.812 523.18 590.636 523.34C590.46 523.5 590.228 523.58 589.94 523.58ZM589.94 509.012C589.556 509.012 589.244 508.9 589.004 508.676C588.764 508.452 588.644 508.156 588.644 507.788C588.644 507.436 588.764 507.148 589.004 506.924C589.244 506.7 589.556 506.588 589.94 506.588C590.324 506.588 590.636 506.7 590.876 506.924C591.116 507.148 591.236 507.436 591.236 507.788C591.236 508.156 591.116 508.452 590.876 508.676C590.636 508.9 590.324 509.012 589.94 509.012ZM599.358 523.628C598.27 523.628 597.302 523.38 596.454 522.884C595.622 522.388 594.974 521.684 594.51 520.772C594.062 519.86 593.838 518.804 593.838 517.604C593.838 516.404 594.07 515.34 594.534 514.412C595.014 513.484 595.678 512.764 596.526 512.252C597.374 511.74 598.35 511.484 599.454 511.484C600.062 511.484 600.662 511.572 601.254 511.748C601.862 511.908 602.39 512.148 602.838 512.468C603.126 512.66 603.326 512.852 603.438 513.044C603.566 513.22 603.63 513.42 603.63 513.644C603.63 513.868 603.566 514.052 603.438 514.196C603.326 514.34 603.174 514.412 602.982 514.412C602.87 514.412 602.75 514.38 602.622 514.316C602.494 514.252 602.382 514.188 602.286 514.124C602.206 514.06 602.15 514.02 602.118 514.004C601.702 513.732 601.302 513.516 600.918 513.356C600.55 513.196 600.094 513.116 599.55 513.116C598.382 513.116 597.47 513.516 596.814 514.316C596.174 515.1 595.854 516.196 595.854 517.604C595.854 519.012 596.174 520.1 596.814 520.868C597.47 521.636 598.382 522.02 599.55 522.02C600.094 522.02 600.558 521.94 600.942 521.78C601.342 521.62 601.742 521.404 602.142 521.132C602.318 521.02 602.486 520.924 602.646 520.844C602.806 520.764 602.942 520.724 603.054 520.724C603.23 520.724 603.374 520.796 603.486 520.94C603.614 521.084 603.678 521.268 603.678 521.492C603.678 521.7 603.622 521.892 603.51 522.068C603.398 522.228 603.19 522.412 602.886 522.62C602.438 522.924 601.894 523.172 601.254 523.364C600.63 523.54 599.998 523.628 599.358 523.628ZM615.066 520.748C615.242 520.748 615.394 520.82 615.522 520.964C615.65 521.108 615.714 521.292 615.714 521.516C615.714 521.916 615.434 522.284 614.874 522.62C614.298 522.956 613.69 523.212 613.05 523.388C612.41 523.548 611.786 523.628 611.178 523.628C609.37 523.628 607.938 523.092 606.882 522.02C605.842 520.948 605.322 519.468 605.322 517.58C605.322 516.38 605.554 515.324 606.018 514.412C606.482 513.484 607.13 512.764 607.962 512.252C608.81 511.74 609.77 511.484 610.842 511.484C612.362 511.484 613.57 511.98 614.466 512.972C615.362 513.964 615.81 515.308 615.81 517.004C615.81 517.324 615.746 517.556 615.618 517.7C615.49 517.844 615.282 517.916 614.994 517.916H607.266C607.41 520.668 608.714 522.044 611.178 522.044C611.802 522.044 612.338 521.964 612.786 521.804C613.234 521.628 613.714 521.396 614.226 521.108C614.642 520.868 614.922 520.748 615.066 520.748ZM610.866 512.996C609.842 512.996 609.018 513.316 608.394 513.956C607.786 514.596 607.426 515.5 607.314 516.668H614.106C614.074 515.484 613.778 514.58 613.218 513.956C612.658 513.316 611.874 512.996 610.866 512.996ZM619.587 520.868C619.987 520.868 620.307 521.028 620.547 521.348C620.803 521.652 620.931 522.116 620.931 522.74C620.931 524.004 620.523 525.068 619.707 525.932C619.547 526.108 619.363 526.196 619.155 526.196C618.995 526.196 618.851 526.132 618.723 526.004C618.595 525.892 618.531 525.756 618.531 525.596C618.531 525.42 618.595 525.268 618.723 525.14C619.139 524.708 619.403 524.172 619.515 523.532C619.163 523.5 618.867 523.372 618.627 523.148C618.403 522.908 618.291 522.604 618.291 522.236C618.291 521.836 618.411 521.508 618.651 521.252C618.907 520.996 619.219 520.868 619.587 520.868ZM635.746 522.044C636.306 522.092 636.586 522.348 636.586 522.812C636.586 523.084 636.482 523.292 636.274 523.436C636.082 523.564 635.786 523.612 635.386 523.58L634.738 523.532C633.458 523.436 632.514 523.052 631.906 522.38C631.298 521.708 630.994 520.692 630.994 519.332V513.308H629.386C629.114 513.308 628.898 513.244 628.738 513.116C628.594 512.972 628.522 512.788 628.522 512.564C628.522 512.324 628.594 512.132 628.738 511.988C628.898 511.844 629.114 511.772 629.386 511.772H630.994V509.06C630.994 508.756 631.082 508.524 631.258 508.364C631.434 508.188 631.674 508.1 631.978 508.1C632.266 508.1 632.498 508.188 632.674 508.364C632.85 508.524 632.938 508.756 632.938 509.06V511.772H635.602C635.858 511.772 636.058 511.844 636.202 511.988C636.362 512.132 636.442 512.324 636.442 512.564C636.442 512.788 636.362 512.972 636.202 513.116C636.058 513.244 635.858 513.308 635.602 513.308H632.938V519.428C632.938 520.308 633.114 520.948 633.466 521.348C633.834 521.732 634.378 521.948 635.098 521.996L635.746 522.044ZM643.351 523.628C642.247 523.628 641.271 523.38 640.423 522.884C639.591 522.388 638.943 521.684 638.479 520.772C638.031 519.844 637.807 518.772 637.807 517.556C637.807 516.34 638.031 515.276 638.479 514.364C638.943 513.436 639.591 512.724 640.423 512.228C641.271 511.732 642.247 511.484 643.351 511.484C644.455 511.484 645.431 511.732 646.279 512.228C647.127 512.724 647.775 513.436 648.223 514.364C648.687 515.276 648.919 516.34 648.919 517.556C648.919 518.772 648.687 519.844 648.223 520.772C647.775 521.684 647.127 522.388 646.279 522.884C645.431 523.38 644.455 523.628 643.351 523.628ZM643.351 522.02C644.503 522.02 645.383 521.644 645.991 520.892C646.615 520.124 646.927 519.012 646.927 517.556C646.927 516.132 646.615 515.036 645.991 514.268C645.367 513.484 644.487 513.092 643.351 513.092C642.215 513.092 641.335 513.484 640.711 514.268C640.087 515.036 639.775 516.132 639.775 517.556C639.775 518.996 640.079 520.1 640.687 520.868C641.311 521.636 642.199 522.02 643.351 522.02ZM656.663 523.628C655.559 523.628 654.583 523.38 653.735 522.884C652.903 522.388 652.255 521.684 651.791 520.772C651.343 519.844 651.119 518.772 651.119 517.556C651.119 516.34 651.343 515.276 651.791 514.364C652.255 513.436 652.903 512.724 653.735 512.228C654.583 511.732 655.559 511.484 656.663 511.484C657.767 511.484 658.743 511.732 659.591 512.228C660.439 512.724 661.087 513.436 661.535 514.364C661.999 515.276 662.231 516.34 662.231 517.556C662.231 518.772 661.999 519.844 661.535 520.772C661.087 521.684 660.439 522.388 659.591 522.884C658.743 523.38 657.767 523.628 656.663 523.628ZM656.663 522.02C657.815 522.02 658.695 521.644 659.303 520.892C659.927 520.124 660.239 519.012 660.239 517.556C660.239 516.132 659.927 515.036 659.303 514.268C658.679 513.484 657.799 513.092 656.663 513.092C655.527 513.092 654.647 513.484 654.023 514.268C653.399 515.036 653.087 516.132 653.087 517.556C653.087 518.996 653.391 520.1 653.999 520.868C654.623 521.636 655.511 522.02 656.663 522.02ZM666.064 519.164C665.904 519.164 665.768 519.108 665.656 518.996C665.544 518.868 665.48 518.7 665.464 518.492L664.888 507.62C664.856 507.252 664.952 506.964 665.176 506.756C665.4 506.532 665.696 506.42 666.064 506.42C666.432 506.42 666.728 506.532 666.952 506.756C667.176 506.964 667.272 507.252 667.24 507.62L666.664 518.492C666.648 518.716 666.584 518.884 666.472 518.996C666.36 519.108 666.224 519.164 666.064 519.164ZM666.088 523.58C665.704 523.58 665.384 523.46 665.128 523.22C664.872 522.964 664.744 522.636 664.744 522.236C664.744 521.836 664.872 521.508 665.128 521.252C665.384 520.996 665.704 520.868 666.088 520.868C666.456 520.868 666.76 520.996 667 521.252C667.256 521.508 667.384 521.836 667.384 522.236C667.384 522.636 667.256 522.964 667 523.22C666.76 523.46 666.456 523.58 666.088 523.58Z" fill="#8C9197"/>
</svg>
