<svg width="28" height="28" viewBox="0 0 28 28" fill="none" xmlns="http://www.w3.org/2000/svg">
<g clip-path="url(#clip0)">
<path d="M14 0.00195312C6.26805 0.00195312 0 6.27 0 14.0019C0 21.7339 6.26805 28.0019 14 28.0019C21.732 28.0019 28 21.7342 28 14.0019C28 6.26967 21.732 0.00195312 14 0.00195312ZM13.9302 21.8311C13.9302 21.8311 13.2806 22.2629 12.8365 22.261C12.797 22.2791 12.7736 22.2896 12.7736 22.2896L12.7746 22.261C12.6814 22.2567 12.5875 22.2435 12.4929 22.2198L12.3526 22.1852C11.5772 21.9928 11.1667 21.224 11.3598 20.4489L12.4392 16.097L12.9264 14.1314C13.3797 12.3065 11.4892 14.5195 11.1015 13.6788C10.8456 13.1231 12.572 11.957 13.8333 11.0778C13.8333 11.0778 14.4823 10.6466 14.9266 10.6482C14.9665 10.6298 14.9899 10.6196 14.9899 10.6196L14.9882 10.6482C15.0821 10.6525 15.176 10.6657 15.2705 10.6891L15.4109 10.724C16.1863 10.9164 16.6587 11.7007 16.4663 12.4758L15.3872 16.828L14.899 18.7936C14.4464 20.6185 16.3056 18.397 16.6929 19.2386C16.9489 19.7937 15.1912 20.9519 13.9302 21.8311ZM16.6663 8.22835C16.3968 9.31376 15.2985 9.97555 14.2135 9.70609C13.1277 9.43663 12.4659 8.3387 12.7354 7.25296C13.0048 6.16722 14.1031 5.50576 15.1882 5.77522C16.2739 6.04435 16.9354 7.14261 16.6663 8.22835Z" fill="black"/>
</g>
<defs>
<clipPath id="clip0">
<rect width="28" height="28" fill="white"/>
</clipPath>
</defs>
</svg>
