<svg width="34" height="34" viewBox="0 0 34 34" fill="none" xmlns="http://www.w3.org/2000/svg">
<path d="M18.2606 2.05405L29.5939 7.72072C30.066 7.95529 30.4632 8.31689 30.741 8.76487C31.0188 9.21284 31.1661 9.72943 31.1664 10.2566V23.7574C31.1661 24.2845 31.0188 24.8011 30.741 25.2491C30.4632 25.6971 30.066 26.0587 29.5939 26.2932L18.2606 31.9599C17.8669 32.1569 17.4328 32.2594 16.9927 32.2594C16.5525 32.2594 16.1184 32.1569 15.7247 31.9599L4.39141 26.2932C3.91984 26.0556 3.52406 25.691 3.24871 25.2404C2.97336 24.7898 2.8294 24.2713 2.83308 23.7432V10.2566C2.83336 9.72943 2.98068 9.21284 3.25847 8.76487C3.53627 8.31689 3.93352 7.95529 4.40558 7.72072L15.7389 2.05405C16.1307 1.85937 16.5622 1.75806 16.9997 1.75806C17.4372 1.75806 17.8688 1.85937 18.2606 2.05405V2.05405Z" stroke="white" stroke-width="2" stroke-linecap="round" stroke-linejoin="round"/>
<path d="M3.28662 8.72656L17 15.5832L30.7133 8.72656" stroke="white" stroke-width="2" stroke-linecap="round" stroke-linejoin="round"/>
<path d="M17 32.2433V15.5833" stroke="white" stroke-width="2" stroke-linecap="round" stroke-linejoin="round"/>
<path d="M9.9165 4.95825L24.0832 12.0416" stroke="white" stroke-width="2" stroke-linecap="round" stroke-linejoin="round"/>
</svg>
