<svg xmlns="http://www.w3.org/2000/svg" viewBox="0 0 24 20"><defs><style>.cls-1{fill:#fff;}</style></defs><g id="Layer_2" data-name="Layer 2"><g id="Layer_1-2" data-name="Layer 1"><path class="cls-1" d="M11.48,6.85a1,1,0,0,1-.33-1.37l3-5A1,1,0,0,1,15,0a1,1,0,0,1,.85,1.52l-3,5A1,1,0,0,1,11.48,6.85ZM14.9,7l-.35.57A3,3,0,0,1,9.19,7H0V9H.64a1.4,1.4,0,0,1,1.26.78L6,20H18L22.1,9.79A1.41,1.41,0,0,1,23.36,9H24V7ZM9,16a1,1,0,0,1-2,0V12a1,1,0,0,1,2,0Zm4,0a1,1,0,0,1-2,0V12a1,1,0,0,1,2,0Zm4,0a1,1,0,0,1-2,0V12a1,1,0,0,1,2,0Z"/></g></g></svg>