<svg width="88" height="111" viewBox="0 0 88 111" fill="none" xmlns="http://www.w3.org/2000/svg">
<g filter="url(#filter0_dd)">
<rect x="16.3276" y="28" width="55" height="55" rx="20" fill="#F61067"/>
<rect x="17.3276" y="29" width="53" height="53" rx="19" stroke="white" stroke-width="2"/>
</g>
<g clip-path="url(#clip0)">
<path d="M37.9683 69.3125C39.2627 69.3125 40.312 68.1792 40.312 66.7812C40.312 65.3833 39.2627 64.25 37.9683 64.25C36.6738 64.25 35.6245 65.3833 35.6245 66.7812C35.6245 68.1792 36.6738 69.3125 37.9683 69.3125Z" fill="white"/>
<path d="M52.4214 69.3125C53.7158 69.3125 54.7651 68.1792 54.7651 66.7812C54.7651 65.3833 53.7158 64.25 52.4214 64.25C51.127 64.25 50.0776 65.3833 50.0776 66.7812C50.0776 68.1792 51.127 69.3125 52.4214 69.3125Z" fill="white"/>
<path d="M52.812 62.5625H37.187C36.8003 62.5625 36.4718 62.2571 36.4144 61.844L34.1706 45.6875H31.3276V44H34.8433C35.23 44 35.5585 44.3054 35.6159 44.7185L36.1608 48.6406H54.7651C54.9956 48.6406 55.214 48.7503 55.3628 48.9406C55.5112 49.1308 55.5745 49.3823 55.5351 49.6274L53.5819 61.8618C53.5175 62.2668 53.1925 62.5625 52.812 62.5625Z" fill="white"/>
</g>
<defs>
<filter id="filter0_dd" x="0.327637" y="0" width="87" height="111" filterUnits="userSpaceOnUse" color-interpolation-filters="sRGB">
<feFlood flood-opacity="0" result="BackgroundImageFix"/>
<feColorMatrix in="SourceAlpha" type="matrix" values="0 0 0 0 0 0 0 0 0 0 0 0 0 0 0 0 0 0 127 0"/>
<feOffset dy="-12"/>
<feGaussianBlur stdDeviation="8"/>
<feColorMatrix type="matrix" values="0 0 0 0 1 0 0 0 0 1 0 0 0 0 1 0 0 0 1 0"/>
<feBlend mode="normal" in2="BackgroundImageFix" result="effect1_dropShadow"/>
<feColorMatrix in="SourceAlpha" type="matrix" values="0 0 0 0 0 0 0 0 0 0 0 0 0 0 0 0 0 0 127 0"/>
<feOffset dy="12"/>
<feGaussianBlur stdDeviation="8"/>
<feColorMatrix type="matrix" values="0 0 0 0 0 0 0 0 0 0 0 0 0 0 0 0 0 0 0.3 0"/>
<feBlend mode="normal" in2="effect1_dropShadow" result="effect2_dropShadow"/>
<feBlend mode="normal" in="SourceGraphic" in2="effect2_dropShadow" result="shape"/>
</filter>
<clipPath id="clip0">
<rect x="31.3276" y="42" width="25" height="27" fill="white"/>
</clipPath>
</defs>
</svg>
