<svg width="175" height="103" viewBox="0 0 175 103" fill="none" xmlns="http://www.w3.org/2000/svg">
<g filter="url(#filter0_dd)">
<rect x="16.3276" y="28" width="142" height="47" rx="20" fill="#EAF0F8"/>
<rect x="17.3276" y="29" width="140" height="45" rx="19" stroke="white" stroke-width="2"/>
</g>
<path opacity="0.8" d="M87.9672 58.1928C88.0056 58.2696 88.0248 58.3512 88.0248 58.4376C88.0248 58.5816 87.9672 58.7016 87.852 58.7976C87.7464 58.8936 87.6168 58.9416 87.4632 58.9416C87.2232 58.9416 87.0552 58.8264 86.9592 58.596L85.9368 56.2632H80.508L79.4712 58.596C79.3752 58.8264 79.2072 58.9416 78.9672 58.9416C78.8136 58.9416 78.6792 58.8936 78.564 58.7976C78.4488 58.692 78.3912 58.5672 78.3912 58.4232C78.3912 58.3464 78.4104 58.2696 78.4488 58.1928L82.5672 49.0344C82.6248 48.9 82.7112 48.7992 82.8264 48.732C82.9416 48.6648 83.0664 48.6312 83.2008 48.6312C83.3448 48.6312 83.4744 48.6696 83.5896 48.7464C83.7048 48.8136 83.7912 48.9096 83.8488 49.0344L87.9672 58.1928ZM85.5048 55.284L83.2152 50.1144L80.94 55.284H85.5048ZM95.0441 51.684C95.6585 51.684 96.2009 51.8328 96.6713 52.1304C97.1417 52.428 97.5065 52.8504 97.7657 53.3976C98.0249 53.9448 98.1545 54.5784 98.1545 55.2984C98.1545 56.028 98.0249 56.6712 97.7657 57.228C97.5065 57.7752 97.1417 58.2024 96.6713 58.5096C96.2009 58.8168 95.6585 58.9704 95.0441 58.9704C94.4969 58.9704 94.0169 58.8504 93.6041 58.6104C93.2009 58.3704 92.8937 58.0296 92.6825 57.588V58.3656C92.6825 58.5384 92.6297 58.6776 92.5241 58.7832C92.4281 58.8888 92.2889 58.9416 92.1065 58.9416C91.9241 58.9416 91.7801 58.8888 91.6745 58.7832C91.5689 58.6776 91.5161 58.5384 91.5161 58.3656V49.2072C91.5161 49.044 91.5689 48.9096 91.6745 48.804C91.7801 48.6984 91.9241 48.6456 92.1065 48.6456C92.2889 48.6456 92.4281 48.6984 92.5241 48.804C92.6297 48.9 92.6825 49.0344 92.6825 49.2072V53.0664C92.8937 52.6248 93.2009 52.284 93.6041 52.044C94.0169 51.804 94.4969 51.684 95.0441 51.684ZM94.8137 58.0056C95.4953 58.0056 96.0233 57.7704 96.3977 57.3C96.7721 56.82 96.9593 56.1528 96.9593 55.2984C96.9593 54.4632 96.7721 53.8152 96.3977 53.3544C96.0233 52.8936 95.4953 52.6632 94.8137 52.6632C94.1321 52.6632 93.6041 52.8936 93.2297 53.3544C92.8649 53.8152 92.6825 54.4728 92.6825 55.3272C92.6825 56.1816 92.8649 56.844 93.2297 57.3144C93.6041 57.7752 94.1321 58.0056 94.8137 58.0056ZM104.806 58.9704C104.144 58.9704 103.558 58.8216 103.049 58.524C102.55 58.2264 102.161 57.804 101.883 57.2568C101.614 56.7 101.48 56.0568 101.48 55.3272C101.48 54.5976 101.614 53.9592 101.883 53.412C102.161 52.8552 102.55 52.428 103.049 52.1304C103.558 51.8328 104.144 51.684 104.806 51.684C105.469 51.684 106.054 51.8328 106.563 52.1304C107.072 52.428 107.461 52.8552 107.729 53.412C108.008 53.9592 108.147 54.5976 108.147 55.3272C108.147 56.0568 108.008 56.7 107.729 57.2568C107.461 57.804 107.072 58.2264 106.563 58.524C106.054 58.8216 105.469 58.9704 104.806 58.9704ZM104.806 58.0056C105.497 58.0056 106.025 57.78 106.39 57.3288C106.765 56.868 106.952 56.2008 106.952 55.3272C106.952 54.4728 106.765 53.8152 106.39 53.3544C106.016 52.884 105.488 52.6488 104.806 52.6488C104.125 52.6488 103.597 52.884 103.222 53.3544C102.848 53.8152 102.661 54.4728 102.661 55.3272C102.661 56.1912 102.843 56.8536 103.208 57.3144C103.582 57.7752 104.115 58.0056 104.806 58.0056ZM117.213 51.7128C117.395 51.7128 117.534 51.7656 117.63 51.8712C117.736 51.9768 117.789 52.116 117.789 52.2888V58.38C117.789 58.5432 117.736 58.6776 117.63 58.7832C117.534 58.8888 117.395 58.9416 117.213 58.9416C117.04 58.9416 116.901 58.8936 116.795 58.7976C116.699 58.692 116.651 58.5576 116.651 58.3944V57.6744C116.43 58.0968 116.118 58.4184 115.715 58.6392C115.322 58.86 114.875 58.9704 114.376 58.9704C113.541 58.9704 112.912 58.74 112.49 58.2792C112.067 57.8088 111.856 57.1176 111.856 56.2056V52.2888C111.856 52.116 111.909 51.9768 112.014 51.8712C112.12 51.7656 112.264 51.7128 112.446 51.7128C112.629 51.7128 112.768 51.7656 112.864 51.8712C112.97 51.9768 113.022 52.116 113.022 52.2888V56.1768C113.022 56.8008 113.147 57.2616 113.397 57.5592C113.646 57.8472 114.04 57.9912 114.578 57.9912C115.192 57.9912 115.686 57.7944 116.061 57.4008C116.435 56.9976 116.622 56.4696 116.622 55.8168V52.2888C116.622 52.116 116.675 51.9768 116.781 51.8712C116.886 51.7656 117.03 51.7128 117.213 51.7128ZM125.197 58.02C125.533 58.0488 125.701 58.2024 125.701 58.4808C125.701 58.644 125.638 58.7688 125.514 58.8552C125.398 58.932 125.221 58.9608 124.981 58.9416L124.592 58.9128C123.824 58.8552 123.258 58.6248 122.893 58.2216C122.528 57.8184 122.346 57.2088 122.346 56.3928V52.7784H121.381C121.218 52.7784 121.088 52.74 120.992 52.6632C120.906 52.5768 120.862 52.4664 120.862 52.332C120.862 52.188 120.906 52.0728 120.992 51.9864C121.088 51.9 121.218 51.8568 121.381 51.8568H122.346V50.2296C122.346 50.0472 122.398 49.908 122.504 49.812C122.61 49.7064 122.754 49.6536 122.936 49.6536C123.109 49.6536 123.248 49.7064 123.354 49.812C123.459 49.908 123.512 50.0472 123.512 50.2296V51.8568H125.11C125.264 51.8568 125.384 51.9 125.47 51.9864C125.566 52.0728 125.614 52.188 125.614 52.332C125.614 52.4664 125.566 52.5768 125.47 52.6632C125.384 52.74 125.264 52.7784 125.11 52.7784H123.512V56.4504C123.512 56.9784 123.618 57.3624 123.829 57.6024C124.05 57.8328 124.376 57.9624 124.808 57.9912L125.197 58.02Z" fill="black"/>
<path d="M65.2755 53.9454C67.0115 52.2094 67.9222 49.9347 67.9222 47.4974C67.9222 45.06 66.9728 42.7854 65.2755 41.0494C63.5395 39.3134 61.2649 38.4066 58.8275 38.4066C56.3902 38.4066 54.1155 39.356 52.3795 41.0532C50.6435 42.7892 49.7329 45.0639 49.7329 47.5012C49.7329 49.9386 50.6823 52.2132 52.3795 53.9492C53.6195 55.1892 54.3209 56.8439 54.3209 58.6186C54.3209 59.32 54.8595 59.8586 55.5609 59.8586H62.0515C62.3809 59.8586 62.7142 59.7346 62.9195 59.4866C63.1675 59.2386 63.2915 58.948 63.2915 58.6186C63.3342 56.8826 63.9929 55.228 65.2755 53.9454ZM63.4969 52.2094C62.0903 53.616 61.1835 55.4334 60.9355 57.4174H60.3155L61.8849 49.8534C62.0089 49.1907 61.5943 48.532 60.9355 48.3654C60.2729 48.2414 59.6142 48.656 59.4475 49.3147L58.7462 52.7054L57.9595 49.276C57.7929 48.6134 57.1342 48.2026 56.4715 48.3654C55.8089 48.5281 55.3982 49.1907 55.5609 49.8534L57.2969 57.3747H56.7195C56.4715 55.4334 55.5609 53.6121 54.1582 52.1667C52.9182 50.9267 52.2168 49.2721 52.2168 47.4974C52.2168 45.7226 52.9182 44.068 54.1582 42.828C55.3982 41.588 57.0528 40.8866 58.8275 40.8866C60.6023 40.8866 62.2569 41.588 63.4969 42.828C64.7369 44.068 65.4383 45.7226 65.4383 47.4974C65.4422 49.3186 64.7369 50.9694 63.4969 52.2094Z" fill="#66727C"/>
<path d="M63.582 61.8C63.582 61.0986 63.0434 60.56 62.342 60.56H55.3128C54.6114 60.56 54.0728 61.0986 54.0728 61.8C54.0728 62.5014 54.6114 63.04 55.3128 63.04H62.3381C63.0434 63.04 63.582 62.4626 63.582 61.8Z" fill="#66727C"/>
<path d="M61.3077 63.66H56.1423C55.441 63.66 54.9023 64.1986 54.9023 64.9C54.9023 65.6014 55.441 66.14 56.1423 66.14H61.3077C62.0091 66.14 62.5477 65.6014 62.5477 64.9C62.5477 64.1986 62.0091 63.66 61.3077 63.66Z" fill="#66727C"/>
<defs>
<filter id="filter0_dd" x="0.327637" y="0" width="174" height="103" filterUnits="userSpaceOnUse" color-interpolation-filters="sRGB">
<feFlood flood-opacity="0" result="BackgroundImageFix"/>
<feColorMatrix in="SourceAlpha" type="matrix" values="0 0 0 0 0 0 0 0 0 0 0 0 0 0 0 0 0 0 127 0"/>
<feOffset dy="-12"/>
<feGaussianBlur stdDeviation="8"/>
<feColorMatrix type="matrix" values="0 0 0 0 1 0 0 0 0 1 0 0 0 0 1 0 0 0 1 0"/>
<feBlend mode="normal" in2="BackgroundImageFix" result="effect1_dropShadow"/>
<feColorMatrix in="SourceAlpha" type="matrix" values="0 0 0 0 0 0 0 0 0 0 0 0 0 0 0 0 0 0 127 0"/>
<feOffset dy="12"/>
<feGaussianBlur stdDeviation="8"/>
<feColorMatrix type="matrix" values="0 0 0 0 0 0 0 0 0 0 0 0 0 0 0 0 0 0 0.3 0"/>
<feBlend mode="normal" in2="effect1_dropShadow" result="effect2_dropShadow"/>
<feBlend mode="normal" in="SourceGraphic" in2="effect2_dropShadow" result="shape"/>
</filter>
</defs>
</svg>
