<svg width="167" height="156" viewBox="0 0 167 156" fill="none" xmlns="http://www.w3.org/2000/svg">
<path d="M23.492 145.18C23.036 145.18 22.664 145.048 22.376 144.784C22.112 144.496 21.98 144.124 21.98 143.668V122.14H14.24C13.808 122.14 13.472 122.032 13.232 121.816C12.992 121.6 12.872 121.288 12.872 120.88C12.872 120.472 12.992 120.16 13.232 119.944C13.472 119.728 13.808 119.62 14.24 119.62H32.708C33.14 119.62 33.476 119.728 33.716 119.944C33.956 120.16 34.076 120.472 34.076 120.88C34.076 121.288 33.956 121.6 33.716 121.816C33.476 122.032 33.14 122.14 32.708 122.14H24.968V143.668C24.968 144.124 24.836 144.496 24.572 144.784C24.308 145.048 23.948 145.18 23.492 145.18ZM40.8877 145C40.4317 145 40.0597 144.868 39.7717 144.604C39.5077 144.34 39.3757 143.992 39.3757 143.56V121.06C39.3757 120.628 39.5077 120.28 39.7717 120.016C40.0597 119.752 40.4317 119.62 40.8877 119.62H54.3517C54.7837 119.62 55.1197 119.728 55.3597 119.944C55.5997 120.16 55.7197 120.46 55.7197 120.844C55.7197 121.228 55.5997 121.528 55.3597 121.744C55.1197 121.96 54.7837 122.068 54.3517 122.068H42.2917V130.888H53.6317C54.0637 130.888 54.3997 130.996 54.6397 131.212C54.8797 131.428 54.9997 131.728 54.9997 132.112C54.9997 132.496 54.8797 132.796 54.6397 133.012C54.3997 133.228 54.0637 133.336 53.6317 133.336H42.2917V142.552H54.3517C54.7837 142.552 55.1197 142.66 55.3597 142.876C55.5997 143.068 55.7197 143.368 55.7197 143.776C55.7197 144.16 55.5997 144.46 55.3597 144.676C55.1197 144.892 54.7837 145 54.3517 145H40.8877ZM72.9522 145.288C70.5522 145.288 68.4762 144.772 66.7242 143.74C64.9722 142.684 63.6162 141.184 62.6562 139.24C61.7202 137.272 61.2522 134.956 61.2522 132.292C61.2522 129.652 61.7202 127.36 62.6562 125.416C63.6162 123.448 64.9722 121.948 66.7242 120.916C68.4762 119.86 70.5522 119.332 72.9522 119.332C74.5602 119.332 76.0722 119.596 77.4882 120.124C78.9282 120.628 80.1762 121.36 81.2322 122.32C81.6162 122.68 81.8082 123.1 81.8082 123.58C81.8082 123.916 81.7122 124.216 81.5202 124.48C81.3282 124.72 81.1002 124.84 80.8362 124.84C80.5482 124.84 80.2002 124.708 79.7922 124.444C78.5682 123.484 77.4522 122.812 76.4442 122.428C75.4602 122.044 74.3202 121.852 73.0242 121.852C70.2402 121.852 68.0922 122.764 66.5802 124.588C65.0922 126.388 64.3482 128.956 64.3482 132.292C64.3482 135.652 65.0922 138.244 66.5802 140.068C68.0922 141.868 70.2402 142.768 73.0242 142.768C74.2962 142.768 75.4362 142.576 76.4442 142.192C77.4522 141.808 78.5682 141.136 79.7922 140.176C80.2002 139.912 80.5482 139.78 80.8362 139.78C81.1002 139.78 81.3282 139.9 81.5202 140.14C81.7122 140.38 81.8082 140.68 81.8082 141.04C81.8082 141.52 81.6162 141.94 81.2322 142.3C80.1762 143.26 78.9282 144.004 77.4882 144.532C76.0722 145.036 74.5602 145.288 72.9522 145.288ZM102.951 131.968C104.415 132.352 105.543 133.072 106.335 134.128C107.151 135.184 107.559 136.504 107.559 138.088C107.559 140.32 106.827 142.036 105.363 143.236C103.899 144.412 101.823 145 99.1354 145H90.0634C89.6074 145 89.2354 144.868 88.9474 144.604C88.6834 144.34 88.5514 143.992 88.5514 143.56V121.06C88.5514 120.628 88.6834 120.28 88.9474 120.016C89.2354 119.752 89.6074 119.62 90.0634 119.62H98.7394C101.355 119.62 103.383 120.196 104.823 121.348C106.263 122.5 106.983 124.132 106.983 126.244C106.983 127.612 106.623 128.788 105.903 129.772C105.207 130.756 104.223 131.488 102.951 131.968ZM91.4674 130.888H98.3074C100.203 130.888 101.631 130.504 102.591 129.736C103.575 128.968 104.067 127.852 104.067 126.388C104.067 123.508 102.147 122.068 98.3074 122.068H91.4674V130.888ZM98.8474 142.552C100.839 142.552 102.303 142.192 103.239 141.472C104.199 140.728 104.679 139.576 104.679 138.016C104.679 134.896 102.735 133.336 98.8474 133.336H91.4674V142.552H98.8474ZM121.649 145.252C119.993 145.252 118.529 144.88 117.257 144.136C116.009 143.392 115.037 142.336 114.341 140.968C113.669 139.576 113.333 137.968 113.333 136.144C113.333 134.32 113.669 132.724 114.341 131.356C115.037 129.964 116.009 128.896 117.257 128.152C118.529 127.408 119.993 127.036 121.649 127.036C123.305 127.036 124.769 127.408 126.041 128.152C127.313 128.896 128.285 129.964 128.957 131.356C129.653 132.724 130.001 134.32 130.001 136.144C130.001 137.968 129.653 139.576 128.957 140.968C128.285 142.336 127.313 143.392 126.041 144.136C124.769 144.88 123.305 145.252 121.649 145.252ZM121.649 142.84C123.377 142.84 124.697 142.276 125.609 141.148C126.545 139.996 127.013 138.328 127.013 136.144C127.013 134.008 126.545 132.364 125.609 131.212C124.673 130.036 123.353 129.448 121.649 129.448C119.945 129.448 118.625 130.036 117.689 131.212C116.753 132.364 116.285 134.008 116.285 136.144C116.285 138.304 116.741 139.96 117.653 141.112C118.589 142.264 119.921 142.84 121.649 142.84ZM150.394 142.768C150.682 143.056 150.826 143.404 150.826 143.812C150.826 144.172 150.694 144.484 150.43 144.748C150.166 145.012 149.854 145.144 149.494 145.144C149.11 145.144 148.762 144.976 148.45 144.64L142.618 137.98L136.822 144.64C136.51 144.976 136.162 145.144 135.778 145.144C135.418 145.144 135.094 145.012 134.806 144.748C134.542 144.484 134.41 144.16 134.41 143.776C134.41 143.416 134.554 143.08 134.842 142.768L140.818 136.036L135.094 129.52C134.806 129.184 134.662 128.848 134.662 128.512C134.662 128.128 134.794 127.804 135.058 127.54C135.346 127.276 135.658 127.144 135.994 127.144C136.378 127.144 136.726 127.312 137.038 127.648L142.618 134.056L148.198 127.648C148.51 127.312 148.858 127.144 149.242 127.144C149.602 127.144 149.914 127.276 150.178 127.54C150.442 127.804 150.574 128.116 150.574 128.476C150.574 128.884 150.43 129.232 150.142 129.52L144.418 136.036L150.394 142.768Z" fill="black"/>
<path d="M22.376 144.784L21.6389 145.46L21.6683 145.492L21.7003 145.521L22.376 144.784ZM21.98 122.14H22.98V121.14H21.98V122.14ZM13.232 121.816L13.901 121.073L13.901 121.073L13.232 121.816ZM13.232 119.944L13.901 120.687L13.901 120.687L13.232 119.944ZM33.716 119.944L33.0471 120.687L33.0471 120.687L33.716 119.944ZM33.716 121.816L33.0471 121.073L33.0471 121.073L33.716 121.816ZM24.968 122.14V121.14H23.968V122.14H24.968ZM24.572 144.784L25.2791 145.491L25.2945 145.476L25.3092 145.46L24.572 144.784ZM23.492 144.18C23.2417 144.18 23.1249 144.114 23.0518 144.047L21.7003 145.521C22.2031 145.982 22.8304 146.18 23.492 146.18V144.18ZM23.1132 144.108C23.0461 144.035 22.98 143.918 22.98 143.668H20.98C20.98 144.33 21.1779 144.957 21.6389 145.46L23.1132 144.108ZM22.98 143.668V122.14H20.98V143.668H22.98ZM21.98 121.14H14.24V123.14H21.98V121.14ZM14.24 121.14C13.9703 121.14 13.9028 121.074 13.901 121.073L12.5631 122.559C13.0412 122.99 13.6458 123.14 14.24 123.14V121.14ZM13.901 121.073C13.8998 121.072 13.9002 121.072 13.9008 121.073C13.9012 121.073 13.8989 121.07 13.8954 121.061C13.888 121.042 13.872 120.988 13.872 120.88H11.872C11.872 121.491 12.0594 122.106 12.5631 122.559L13.901 121.073ZM13.872 120.88C13.872 120.772 13.888 120.718 13.8954 120.699C13.8989 120.69 13.9012 120.687 13.9008 120.687C13.9002 120.688 13.8998 120.688 13.901 120.687L12.5631 119.201C12.0594 119.654 11.872 120.269 11.872 120.88H13.872ZM13.901 120.687C13.9028 120.686 13.9703 120.62 14.24 120.62V118.62C13.6458 118.62 13.0412 118.77 12.5631 119.201L13.901 120.687ZM14.24 120.62H32.708V118.62H14.24V120.62ZM32.708 120.62C32.9778 120.62 33.0452 120.686 33.0471 120.687L34.385 119.201C33.9068 118.77 33.3023 118.62 32.708 118.62V120.62ZM33.0471 120.687C33.0483 120.688 33.0478 120.688 33.0473 120.687C33.0469 120.687 33.0491 120.69 33.0527 120.699C33.0601 120.718 33.076 120.772 33.076 120.88H35.076C35.076 120.269 34.8886 119.654 34.385 119.201L33.0471 120.687ZM33.076 120.88C33.076 120.988 33.0601 121.042 33.0527 121.061C33.0491 121.07 33.0469 121.073 33.0473 121.073C33.0478 121.072 33.0483 121.072 33.0471 121.073L34.385 122.559C34.8886 122.106 35.076 121.491 35.076 120.88H33.076ZM33.0471 121.073C33.0452 121.074 32.9778 121.14 32.708 121.14V123.14C33.3023 123.14 33.9068 122.99 34.385 122.559L33.0471 121.073ZM32.708 121.14H24.968V123.14H32.708V121.14ZM23.968 122.14V143.668H25.968V122.14H23.968ZM23.968 143.668C23.968 143.918 23.9019 144.035 23.8349 144.108L25.3092 145.46C25.7701 144.957 25.968 144.33 25.968 143.668H23.968ZM23.8649 144.077C23.8284 144.113 23.7453 144.18 23.492 144.18V146.18C24.1508 146.18 24.7876 145.983 25.2791 145.491L23.8649 144.077ZM39.7717 144.604L39.0645 145.311L39.0799 145.326L39.0959 145.341L39.7717 144.604ZM39.7717 120.016L39.0959 119.279L39.0799 119.294L39.0645 119.309L39.7717 120.016ZM42.2917 122.068V121.068H41.2917V122.068H42.2917ZM42.2917 130.888H41.2917V131.888H42.2917V130.888ZM42.2917 133.336V132.336H41.2917V133.336H42.2917ZM42.2917 142.552H41.2917V143.552H42.2917V142.552ZM55.3597 142.876L54.6907 143.619L54.7123 143.639L54.735 143.657L55.3597 142.876ZM55.3597 144.676L54.6907 143.933L55.3597 144.676ZM40.8877 144C40.6373 144 40.5205 143.934 40.4474 143.867L39.0959 145.341C39.5988 145.802 40.226 146 40.8877 146V144ZM40.4788 143.897C40.4319 143.85 40.3757 143.772 40.3757 143.56H38.3757C38.3757 144.212 38.5834 144.83 39.0645 145.311L40.4788 143.897ZM40.3757 143.56V121.06H38.3757V143.56H40.3757ZM40.3757 121.06C40.3757 120.848 40.4319 120.77 40.4788 120.723L39.0645 119.309C38.5834 119.79 38.3757 120.408 38.3757 121.06H40.3757ZM40.4474 120.753C40.5205 120.686 40.6373 120.62 40.8877 120.62V118.62C40.226 118.62 39.5988 118.818 39.0959 119.279L40.4474 120.753ZM40.8877 120.62H54.3517V118.62H40.8877V120.62ZM54.3517 120.62C54.6214 120.62 54.6889 120.686 54.6907 120.687L56.0286 119.201C55.5505 118.77 54.9459 118.62 54.3517 118.62V120.62ZM54.6907 120.687C54.6968 120.693 54.698 120.694 54.7012 120.702C54.7059 120.714 54.7197 120.756 54.7197 120.844H56.7197C56.7197 120.235 56.5193 119.642 56.0286 119.201L54.6907 120.687ZM54.7197 120.844C54.7197 120.932 54.7059 120.974 54.7012 120.986C54.698 120.994 54.6968 120.995 54.6907 121.001L56.0286 122.487C56.5193 122.046 56.7197 121.453 56.7197 120.844H54.7197ZM54.6907 121.001C54.6889 121.002 54.6214 121.068 54.3517 121.068V123.068C54.9459 123.068 55.5505 122.918 56.0286 122.487L54.6907 121.001ZM54.3517 121.068H42.2917V123.068H54.3517V121.068ZM41.2917 122.068V130.888H43.2917V122.068H41.2917ZM42.2917 131.888H53.6317V129.888H42.2917V131.888ZM53.6317 131.888C53.9014 131.888 53.9689 131.954 53.9707 131.955L55.3086 130.469C54.8305 130.038 54.2259 129.888 53.6317 129.888V131.888ZM53.9707 131.955C53.9768 131.961 53.978 131.962 53.9812 131.97C53.9859 131.982 53.9997 132.024 53.9997 132.112H55.9997C55.9997 131.503 55.7993 130.91 55.3086 130.469L53.9707 131.955ZM53.9997 132.112C53.9997 132.2 53.9859 132.242 53.9812 132.254C53.978 132.262 53.9768 132.263 53.9707 132.269L55.3086 133.755C55.7993 133.314 55.9997 132.721 55.9997 132.112H53.9997ZM53.9707 132.269C53.9689 132.27 53.9014 132.336 53.6317 132.336V134.336C54.2259 134.336 54.8305 134.186 55.3086 133.755L53.9707 132.269ZM53.6317 132.336H42.2917V134.336H53.6317V132.336ZM41.2917 133.336V142.552H43.2917V133.336H41.2917ZM42.2917 143.552H54.3517V141.552H42.2917V143.552ZM54.3517 143.552C54.6214 143.552 54.6889 143.618 54.6907 143.619L56.0286 142.133C55.5505 141.702 54.9459 141.552 54.3517 141.552V143.552ZM54.735 143.657C54.7266 143.65 54.7177 143.641 54.7101 143.631C54.7027 143.621 54.7005 143.615 54.7012 143.616C54.7033 143.622 54.7197 143.667 54.7197 143.776H56.7197C56.7197 143.171 56.534 142.535 55.9843 142.095L54.735 143.657ZM54.7197 143.776C54.7197 143.864 54.7059 143.906 54.7012 143.918C54.698 143.926 54.6968 143.927 54.6907 143.933L56.0286 145.419C56.5193 144.978 56.7197 144.385 56.7197 143.776H54.7197ZM54.6907 143.933C54.6889 143.934 54.6214 144 54.3517 144V146C54.9459 146 55.5505 145.85 56.0286 145.419L54.6907 143.933ZM54.3517 144H40.8877V146H54.3517V144ZM66.7242 143.74L66.2079 144.596L66.2166 144.602L66.7242 143.74ZM62.6562 139.24L61.7531 139.67L61.7563 139.676L61.7595 139.683L62.6562 139.24ZM62.6562 125.416L61.7574 124.978L61.7552 124.982L62.6562 125.416ZM66.7242 120.916L67.2317 121.778L67.2404 121.772L66.7242 120.916ZM77.4882 120.124L77.1388 121.061L77.1483 121.065L77.1578 121.068L77.4882 120.124ZM81.2322 122.32L81.9161 121.59L81.9105 121.585L81.9048 121.58L81.2322 122.32ZM81.5202 124.48L82.301 125.105L82.3154 125.087L82.3289 125.068L81.5202 124.48ZM79.7922 124.444L79.175 125.231L79.2108 125.259L79.2489 125.284L79.7922 124.444ZM76.4442 122.428L76.0806 123.36L76.0882 123.362L76.4442 122.428ZM66.5802 124.588L65.8103 123.95L65.8094 123.951L66.5802 124.588ZM66.5802 140.068L65.8053 140.7L65.8098 140.706L65.8144 140.711L66.5802 140.068ZM76.4442 142.192L76.0882 141.258L76.0882 141.258L76.4442 142.192ZM79.7922 140.176L79.2489 139.336L79.2108 139.361L79.175 139.389L79.7922 140.176ZM81.5202 140.14L80.7393 140.765L80.7393 140.765L81.5202 140.14ZM81.2322 142.3L81.9048 143.04L81.9105 143.035L81.9161 143.03L81.2322 142.3ZM77.4882 144.532L77.8235 145.474L77.8324 145.471L77.4882 144.532ZM72.9522 144.288C70.6982 144.288 68.8042 143.805 67.2317 142.878L66.2166 144.602C68.1481 145.739 70.4061 146.288 72.9522 146.288V144.288ZM67.2404 142.884C65.6621 141.932 64.4334 140.581 63.5528 138.797L61.7595 139.683C62.7989 141.787 64.2822 143.436 66.2079 144.596L67.2404 142.884ZM63.5592 138.81C62.6996 137.003 62.2522 134.84 62.2522 132.292H60.2522C60.2522 135.072 60.7407 137.541 61.7531 139.67L63.5592 138.81ZM62.2522 132.292C62.2522 129.769 62.6992 127.632 63.5572 125.85L61.7552 124.982C60.7411 127.088 60.2522 129.535 60.2522 132.292H62.2522ZM63.5549 125.854C64.4358 124.049 65.6619 122.702 67.2317 121.778L66.2166 120.054C64.2824 121.194 62.7965 122.847 61.7574 124.978L63.5549 125.854ZM67.2404 121.772C68.8113 120.826 70.7022 120.332 72.9522 120.332V118.332C70.4021 118.332 68.141 118.894 66.2079 120.06L67.2404 121.772ZM72.9522 120.332C74.4486 120.332 75.8415 120.577 77.1388 121.061L77.8375 119.187C76.3028 118.615 74.6717 118.332 72.9522 118.332V120.332ZM77.1578 121.068C78.48 121.531 79.6095 122.196 80.5595 123.06L81.9048 121.58C80.7428 120.524 79.3763 119.725 77.8185 119.18L77.1578 121.068ZM80.5482 123.05C80.7522 123.241 80.8082 123.405 80.8082 123.58H82.8082C82.8082 122.795 82.4801 122.119 81.9161 121.59L80.5482 123.05ZM80.8082 123.58C80.8082 123.711 80.7753 123.804 80.7114 123.892L82.3289 125.068C82.649 124.628 82.8082 124.121 82.8082 123.58H80.8082ZM80.7393 123.855C80.713 123.888 80.7104 123.88 80.7394 123.865C80.7536 123.858 80.771 123.851 80.7904 123.846C80.8097 123.841 80.8257 123.84 80.8362 123.84V125.84C81.4558 125.84 81.9542 125.538 82.301 125.105L80.7393 123.855ZM80.8362 123.84C80.843 123.84 80.806 123.841 80.7138 123.806C80.6224 123.771 80.497 123.709 80.3354 123.604L79.2489 125.284C79.7196 125.588 80.264 125.84 80.8362 125.84V123.84ZM80.4093 123.657C79.1379 122.66 77.9336 121.925 76.8001 121.494L76.0882 123.362C76.9707 123.699 77.9984 124.308 79.175 125.231L80.4093 123.657ZM76.8077 121.496C75.6848 121.058 74.4172 120.852 73.0242 120.852V122.852C74.2231 122.852 75.2355 123.03 76.0806 123.36L76.8077 121.496ZM73.0242 120.852C70.0004 120.852 67.5464 121.855 65.8103 123.95L67.35 125.226C68.6379 123.673 70.4799 122.852 73.0242 122.852V120.852ZM65.8094 123.951C64.1211 125.993 63.3482 128.821 63.3482 132.292H65.3482C65.3482 129.091 66.0632 126.783 67.3509 125.225L65.8094 123.951ZM63.3482 132.292C63.3482 135.786 64.1206 138.635 65.8053 140.7L67.355 139.436C66.0637 137.853 65.3482 135.518 65.3482 132.292H63.3482ZM65.8144 140.711C67.5521 142.78 70.005 143.768 73.0242 143.768V141.768C70.4753 141.768 68.6323 140.956 67.3459 139.425L65.8144 140.711ZM73.0242 143.768C74.3965 143.768 75.6601 143.561 76.8001 143.126L76.0882 141.258C75.2122 141.591 74.1959 141.768 73.0242 141.768V143.768ZM76.8001 143.126C77.9336 142.695 79.1379 141.96 80.4093 140.963L79.175 139.389C77.9984 140.312 76.9707 140.921 76.0882 141.258L76.8001 143.126ZM80.3354 141.016C80.497 140.911 80.6224 140.849 80.7138 140.814C80.806 140.779 80.843 140.78 80.8362 140.78V138.78C80.2641 138.78 79.7196 139.032 79.2489 139.336L80.3354 141.016ZM80.8362 140.78C80.8257 140.78 80.8097 140.779 80.7904 140.774C80.771 140.769 80.7536 140.762 80.7394 140.755C80.7104 140.74 80.713 140.732 80.7393 140.765L82.301 139.515C81.9542 139.082 81.4558 138.78 80.8362 138.78V140.78ZM80.7393 140.765C80.766 140.798 80.8082 140.866 80.8082 141.04H82.8082C82.8082 140.494 82.6583 139.962 82.301 139.515L80.7393 140.765ZM80.8082 141.04C80.8082 141.215 80.7522 141.379 80.5482 141.57L81.9161 143.03C82.4801 142.501 82.8082 141.825 82.8082 141.04H80.8082ZM80.5595 141.56C79.606 142.427 78.4717 143.106 77.1439 143.593L77.8324 145.471C79.3846 144.902 80.7463 144.093 81.9048 143.04L80.5595 141.56ZM77.1528 143.59C75.8518 144.053 74.4539 144.288 72.9522 144.288V146.288C74.6664 146.288 76.2925 146.019 77.8235 145.474L77.1528 143.59ZM102.951 131.968L102.598 131.032L99.6643 132.14L102.698 132.935L102.951 131.968ZM106.335 134.128L105.535 134.728L105.54 134.734L105.544 134.739L106.335 134.128ZM105.363 143.236L105.99 144.016L105.997 144.009L105.363 143.236ZM88.9474 144.604L88.2403 145.311L88.2557 145.326L88.2717 145.341L88.9474 144.604ZM88.9474 120.016L88.2717 119.279L88.2557 119.294L88.2403 119.309L88.9474 120.016ZM104.823 121.348L104.199 122.129L104.199 122.129L104.823 121.348ZM105.903 129.772L105.096 129.181L105.092 129.188L105.087 129.195L105.903 129.772ZM91.4674 130.888H90.4674V131.888H91.4674V130.888ZM102.591 129.736L101.976 128.948L101.967 128.955L102.591 129.736ZM91.4674 122.068V121.068H90.4674V122.068H91.4674ZM103.239 141.472L103.849 142.265L103.852 142.262L103.239 141.472ZM91.4674 133.336V132.336H90.4674V133.336H91.4674ZM91.4674 142.552H90.4674V143.552H91.4674V142.552ZM102.698 132.935C103.977 133.271 104.898 133.879 105.535 134.728L107.135 133.528C106.189 132.265 104.854 131.433 103.205 131.001L102.698 132.935ZM105.544 134.739C106.201 135.589 106.559 136.682 106.559 138.088H108.559C108.559 136.326 108.102 134.779 107.127 133.517L105.544 134.739ZM106.559 138.088C106.559 140.08 105.919 141.487 104.73 142.463L105.997 144.009C107.736 142.585 108.559 140.56 108.559 138.088H106.559ZM104.737 142.456C103.513 143.439 101.692 144 99.1354 144V146C101.955 146 104.286 145.385 105.99 144.016L104.737 142.456ZM99.1354 144H90.0634V146H99.1354V144ZM90.0634 144C89.8131 144 89.6963 143.934 89.6232 143.867L88.2717 145.341C88.7745 145.802 89.4018 146 90.0634 146V144ZM89.6545 143.897C89.6077 143.85 89.5514 143.772 89.5514 143.56H87.5514C87.5514 144.212 87.7591 144.83 88.2403 145.311L89.6545 143.897ZM89.5514 143.56V121.06H87.5514V143.56H89.5514ZM89.5514 121.06C89.5514 120.848 89.6077 120.77 89.6545 120.723L88.2403 119.309C87.7591 119.79 87.5514 120.408 87.5514 121.06H89.5514ZM89.6232 120.753C89.6963 120.686 89.8131 120.62 90.0634 120.62V118.62C89.4018 118.62 88.7745 118.818 88.2717 119.279L89.6232 120.753ZM90.0634 120.62H98.7394V118.62H90.0634V120.62ZM98.7394 120.62C101.221 120.62 102.997 121.168 104.199 122.129L105.448 120.567C103.77 119.224 101.489 118.62 98.7394 118.62V120.62ZM104.199 122.129C105.365 123.062 105.983 124.386 105.983 126.244H107.983C107.983 123.878 107.162 121.938 105.448 120.567L104.199 122.129ZM105.983 126.244C105.983 127.427 105.676 128.389 105.096 129.181L106.71 130.363C107.571 129.187 107.983 127.797 107.983 126.244H105.983ZM105.087 129.195C104.521 129.995 103.708 130.614 102.598 131.032L103.304 132.904C104.738 132.362 105.894 131.517 106.72 130.349L105.087 129.195ZM91.4674 131.888H98.3074V129.888H91.4674V131.888ZM98.3074 131.888C100.314 131.888 102.005 131.486 103.216 130.517L101.967 128.955C101.258 129.522 100.093 129.888 98.3074 129.888V131.888ZM103.207 130.524C104.477 129.533 105.067 128.1 105.067 126.388H103.067C103.067 127.604 102.674 128.403 101.976 128.948L103.207 130.524ZM105.067 126.388C105.067 124.704 104.491 123.296 103.227 122.348C102.018 121.441 100.324 121.068 98.3074 121.068V123.068C100.131 123.068 101.317 123.415 102.027 123.948C102.684 124.44 103.067 125.192 103.067 126.388H105.067ZM98.3074 121.068H91.4674V123.068H98.3074V121.068ZM90.4674 122.068V130.888H92.4674V122.068H90.4674ZM98.8474 143.552C100.922 143.552 102.654 143.184 103.849 142.265L102.63 140.679C101.953 141.2 100.756 141.552 98.8474 141.552V143.552ZM103.852 142.262C105.123 141.277 105.679 139.789 105.679 138.016H103.679C103.679 139.363 103.275 140.179 102.627 140.682L103.852 142.262ZM105.679 138.016C105.679 136.236 105.114 134.743 103.847 133.726C102.623 132.743 100.899 132.336 98.8474 132.336V134.336C100.684 134.336 101.876 134.709 102.596 135.286C103.273 135.829 103.679 136.676 103.679 138.016H105.679ZM98.8474 132.336H91.4674V134.336H98.8474V132.336ZM90.4674 133.336V142.552H92.4674V133.336H90.4674ZM91.4674 143.552H98.8474V141.552H91.4674V143.552ZM117.257 144.136L116.745 144.995L116.752 144.999L117.257 144.136ZM114.341 140.968L113.441 141.403L113.445 141.412L113.45 141.421L114.341 140.968ZM114.341 131.356L113.447 130.909L113.444 130.915L114.341 131.356ZM117.257 128.152L116.752 127.289L116.745 127.293L117.257 128.152ZM126.041 128.152L126.546 127.289L126.546 127.289L126.041 128.152ZM128.957 131.356L128.057 131.791L128.061 131.8L128.066 131.809L128.957 131.356ZM128.957 140.968L128.063 140.521L128.06 140.527L128.957 140.968ZM126.041 144.136L126.546 144.999L126.546 144.999L126.041 144.136ZM125.609 141.148L124.833 140.517L124.832 140.519L125.609 141.148ZM125.609 131.212L124.827 131.835L124.833 131.843L125.609 131.212ZM117.689 131.212L118.465 131.843L118.472 131.835L117.689 131.212ZM117.653 141.112L116.869 141.733L116.877 141.743L117.653 141.112ZM121.649 144.252C120.148 144.252 118.863 143.917 117.762 143.273L116.752 144.999C118.196 145.843 119.838 146.252 121.649 146.252V144.252ZM117.769 143.277C116.693 142.635 115.848 141.724 115.233 140.515L113.45 141.421C114.227 142.948 115.326 144.149 116.745 144.995L117.769 143.277ZM115.242 140.533C114.646 139.299 114.333 137.844 114.333 136.144H112.333C112.333 138.092 112.692 139.853 113.441 141.403L115.242 140.533ZM114.333 136.144C114.333 134.443 114.646 133.003 115.239 131.797L113.444 130.915C112.692 132.445 112.333 134.197 112.333 136.144H114.333ZM115.236 131.803C115.853 130.569 116.697 129.65 117.769 129.011L116.745 127.293C115.321 128.142 114.222 129.359 113.447 130.909L115.236 131.803ZM117.762 129.015C118.863 128.371 120.148 128.036 121.649 128.036V126.036C119.838 126.036 118.196 126.445 116.752 127.289L117.762 129.015ZM121.649 128.036C123.15 128.036 124.436 128.371 125.536 129.015L126.546 127.289C125.103 126.445 123.46 126.036 121.649 126.036V128.036ZM125.536 129.015C126.628 129.654 127.467 130.568 128.057 131.791L129.858 130.921C129.104 129.36 127.998 128.138 126.546 127.289L125.536 129.015ZM128.066 131.809C128.678 133.013 129.001 134.448 129.001 136.144H131.001C131.001 134.192 130.628 132.435 129.849 130.903L128.066 131.809ZM129.001 136.144C129.001 137.839 128.678 139.29 128.063 140.521L129.852 141.415C130.628 139.862 131.001 138.097 131.001 136.144H129.001ZM128.06 140.527C127.471 141.725 126.633 142.632 125.536 143.273L126.546 144.999C127.994 144.152 129.099 142.947 129.855 141.409L128.06 140.527ZM125.536 143.273C124.436 143.917 123.15 144.252 121.649 144.252V146.252C123.46 146.252 125.103 145.843 126.546 144.999L125.536 143.273ZM121.649 143.84C123.615 143.84 125.248 143.185 126.387 141.777L124.832 140.519C124.146 141.367 123.139 141.84 121.649 141.84V143.84ZM126.385 141.779C127.521 140.381 128.013 138.453 128.013 136.144H126.013C126.013 138.203 125.57 139.611 124.833 140.517L126.385 141.779ZM128.013 136.144C128.013 133.877 127.518 131.975 126.385 130.581L124.833 131.843C125.573 132.753 126.013 134.139 126.013 136.144H128.013ZM126.392 130.589C125.239 129.141 123.612 128.448 121.649 128.448V130.448C123.095 130.448 124.108 130.931 124.827 131.835L126.392 130.589ZM121.649 128.448C119.687 128.448 118.06 129.141 116.907 130.589L118.472 131.835C119.191 130.931 120.204 130.448 121.649 130.448V128.448ZM116.913 130.581C115.781 131.975 115.285 133.877 115.285 136.144H117.285C117.285 134.139 117.726 132.753 118.465 131.843L116.913 130.581ZM115.285 136.144C115.285 138.427 115.765 140.338 116.869 141.733L118.437 140.491C117.718 139.582 117.285 138.181 117.285 136.144H115.285ZM116.877 141.743C118.035 143.168 119.675 143.84 121.649 143.84V141.84C120.167 141.84 119.143 141.36 118.429 140.481L116.877 141.743ZM150.394 142.768L149.647 143.432L149.666 143.454L149.687 143.475L150.394 142.768ZM150.43 144.748L149.723 144.041L149.723 144.041L150.43 144.748ZM148.45 144.64L147.698 145.299L147.708 145.31L147.718 145.32L148.45 144.64ZM142.618 137.98L143.371 137.321L142.616 136.459L141.864 137.324L142.618 137.98ZM136.822 144.64L137.555 145.32L137.566 145.309L137.577 145.296L136.822 144.64ZM134.806 144.748L134.099 145.455L134.115 145.47L134.131 145.485L134.806 144.748ZM134.842 142.768L135.577 143.446L135.584 143.439L135.59 143.432L134.842 142.768ZM140.818 136.036L141.566 136.7L142.153 136.039L141.57 135.376L140.818 136.036ZM135.094 129.52L134.335 130.171L134.343 130.18L135.094 129.52ZM135.058 127.54L134.383 126.803L134.367 126.818L134.351 126.833L135.058 127.54ZM137.038 127.648L137.793 126.991L137.782 126.979L137.771 126.968L137.038 127.648ZM142.618 134.056L141.864 134.713L142.618 135.579L143.373 134.713L142.618 134.056ZM148.198 127.648L147.466 126.968L147.455 126.979L147.444 126.991L148.198 127.648ZM150.178 127.54L149.471 128.247L149.471 128.247L150.178 127.54ZM150.142 129.52L149.435 128.813L149.412 128.836L149.391 128.86L150.142 129.52ZM144.418 136.036L143.667 135.376L143.084 136.039L143.671 136.7L144.418 136.036ZM149.687 143.475C149.787 143.575 149.826 143.669 149.826 143.812H151.826C151.826 143.139 151.577 142.537 151.102 142.061L149.687 143.475ZM149.826 143.812C149.826 143.896 149.808 143.957 149.723 144.041L151.138 145.455C151.581 145.011 151.826 144.448 151.826 143.812H149.826ZM149.723 144.041C149.639 144.125 149.578 144.144 149.494 144.144V146.144C150.13 146.144 150.694 145.899 151.138 145.455L149.723 144.041ZM149.494 144.144C149.442 144.144 149.346 144.135 149.183 143.96L147.718 145.32C148.179 145.817 148.779 146.144 149.494 146.144V144.144ZM149.203 143.981L143.371 137.321L141.866 138.639L147.698 145.299L149.203 143.981ZM141.864 137.324L136.068 143.984L137.577 145.296L143.373 138.636L141.864 137.324ZM136.09 143.96C135.927 144.135 135.831 144.144 135.778 144.144V146.144C136.494 146.144 137.094 145.817 137.555 145.32L136.09 143.96ZM135.778 144.144C135.691 144.144 135.603 144.121 135.482 144.011L134.131 145.485C134.586 145.903 135.146 146.144 135.778 146.144V144.144ZM135.514 144.041C135.443 143.97 135.41 143.903 135.41 143.776H133.41C133.41 144.417 133.642 144.998 134.099 145.455L135.514 144.041ZM135.41 143.776C135.41 143.712 135.427 143.609 135.577 143.446L134.108 142.09C133.682 142.551 133.41 143.12 133.41 143.776H135.41ZM135.59 143.432L141.566 136.7L140.071 135.372L134.095 142.104L135.59 143.432ZM141.57 135.376L135.846 128.86L134.343 130.18L140.067 136.696L141.57 135.376ZM135.854 128.869C135.671 128.656 135.662 128.542 135.662 128.512H133.662C133.662 129.154 133.942 129.712 134.335 130.171L135.854 128.869ZM135.662 128.512C135.662 128.385 135.695 128.318 135.766 128.247L134.351 126.833C133.894 127.29 133.662 127.871 133.662 128.512H135.662ZM135.734 128.277C135.87 128.153 135.949 128.144 135.994 128.144V126.144C135.368 126.144 134.823 126.399 134.383 126.803L135.734 128.277ZM135.994 128.144C136.047 128.144 136.143 128.153 136.306 128.328L137.771 126.968C137.31 126.471 136.71 126.144 135.994 126.144V128.144ZM136.284 128.305L141.864 134.713L143.373 133.399L137.793 126.991L136.284 128.305ZM143.373 134.713L148.953 128.305L147.444 126.991L141.864 133.399L143.373 134.713ZM148.931 128.328C149.094 128.153 149.19 128.144 149.242 128.144V126.144C148.527 126.144 147.927 126.471 147.466 126.968L148.931 128.328ZM149.242 128.144C149.326 128.144 149.387 128.163 149.471 128.247L150.886 126.833C150.442 126.389 149.878 126.144 149.242 126.144V128.144ZM149.471 128.247C149.556 128.331 149.574 128.392 149.574 128.476H151.574C151.574 127.84 151.329 127.277 150.886 126.833L149.471 128.247ZM149.574 128.476C149.574 128.619 149.535 128.713 149.435 128.813L150.85 130.227C151.325 129.751 151.574 129.149 151.574 128.476H149.574ZM149.391 128.86L143.667 135.376L145.17 136.696L150.894 130.18L149.391 128.86ZM143.671 136.7L149.647 143.432L151.142 142.104L145.166 135.372L143.671 136.7Z" fill="black"/>
<g clip-path="url(#clip0)">
<path d="M123.331 15.7755L84.531 0.325503C83.4321 -0.10728 82.2234 -0.10728 81.1244 0.325503L42.3244 15.7755C41.3991 16.1431 40.6016 16.8019 40.0386 17.6639C39.4755 18.5259 39.1738 19.55 39.1738 20.599C39.1738 21.648 39.4755 22.672 40.0386 23.534C40.6016 24.396 41.3991 25.0549 42.3244 25.4225L81.1244 40.8725C82.2228 41.3088 83.4327 41.3088 84.531 40.8725L123.331 25.4225C124.256 25.0549 125.054 24.396 125.617 23.534C126.18 22.672 126.482 21.648 126.482 20.599C126.482 19.55 126.18 18.5259 125.617 17.6639C125.054 16.8019 124.256 16.1431 123.331 15.7755ZM82.8277 103C82.2461 102.999 81.6693 102.888 81.1244 102.672L42.3244 87.2225C41.4 86.8543 40.6034 86.1953 40.0411 85.3336C39.4788 84.4718 39.1776 83.4484 39.1777 82.4V41.2C39.1777 39.8342 39.6887 38.5242 40.5982 37.5584C41.5078 36.5926 42.7414 36.05 44.0277 36.05C45.314 36.05 46.5476 36.5926 47.4572 37.5584C48.3667 38.5242 48.8777 39.8342 48.8777 41.2V78.828L82.8277 92.3478L116.778 78.828V41.2C116.778 39.8342 117.289 38.5242 118.198 37.5584C119.108 36.5926 120.341 36.05 121.628 36.05C122.914 36.05 124.148 36.5926 125.057 37.5584C125.967 38.5242 126.478 39.8342 126.478 41.2V82.4C126.478 83.4484 126.177 84.4718 125.614 85.3336C125.052 86.1953 124.255 86.8543 123.331 87.2225L84.531 102.672C83.9861 102.888 83.4093 102.999 82.8277 103Z" fill="black"/>
</g>
<defs>
<clipPath id="clip0">
<rect x="34.3276" width="97" height="103" fill="white"/>
</clipPath>
</defs>
</svg>
