<svg width="175" height="103" viewBox="0 0 175 103" fill="none" xmlns="http://www.w3.org/2000/svg">
<g filter="url(#filter0_dd)">
<rect x="16.3276" y="28" width="142" height="47" rx="20" fill="#EAF0F8"/>
<rect x="17.3276" y="29" width="140" height="45" rx="19" stroke="white" stroke-width="2"/>
</g>
<path opacity="0.8" d="M76.3979 58.9416C76.2155 58.9416 76.0667 58.8888 75.9515 58.7832C75.8459 58.668 75.7931 58.5192 75.7931 58.3368V49.7256H72.6971C72.5243 49.7256 72.3899 49.6824 72.2939 49.596C72.1979 49.5096 72.1499 49.3848 72.1499 49.2216C72.1499 49.0584 72.1979 48.9336 72.2939 48.8472C72.3899 48.7608 72.5243 48.7176 72.6971 48.7176H80.0843C80.2571 48.7176 80.3915 48.7608 80.4875 48.8472C80.5835 48.9336 80.6315 49.0584 80.6315 49.2216C80.6315 49.3848 80.5835 49.5096 80.4875 49.596C80.3915 49.6824 80.2571 49.7256 80.0843 49.7256H76.9883V58.3368C76.9883 58.5192 76.9355 58.668 76.8299 58.7832C76.7243 58.8888 76.5803 58.9416 76.3979 58.9416ZM86.1521 51.7128C86.5553 51.684 86.7569 51.8472 86.7569 52.2024C86.7569 52.356 86.7137 52.4808 86.6273 52.5768C86.5409 52.6632 86.3921 52.716 86.1809 52.7352L85.7489 52.7784C85.1057 52.836 84.6257 53.0664 84.3089 53.4696C84.0017 53.8632 83.8481 54.3288 83.8481 54.8664V58.3656C83.8481 58.5576 83.7953 58.7016 83.6897 58.7976C83.5841 58.8936 83.4449 58.9416 83.2721 58.9416C83.0993 58.9416 82.9553 58.8936 82.8401 58.7976C82.7345 58.692 82.6817 58.548 82.6817 58.3656V52.2888C82.6817 52.1064 82.7393 51.9672 82.8545 51.8712C82.9697 51.7656 83.1089 51.7128 83.2721 51.7128C83.4257 51.7128 83.5553 51.7656 83.6609 51.8712C83.7665 51.9672 83.8193 52.1016 83.8193 52.2744V53.0808C84.0209 52.6584 84.3041 52.3368 84.6689 52.116C85.0433 51.8952 85.4705 51.7656 85.9505 51.7272L86.1521 51.7128ZM92.5676 51.684C94.3244 51.684 95.2028 52.6056 95.2028 54.4488V58.3656C95.2028 58.5384 95.15 58.6776 95.0444 58.7832C94.9484 58.8888 94.814 58.9416 94.6412 58.9416C94.4684 58.9416 94.3292 58.8888 94.2236 58.7832C94.118 58.6776 94.0652 58.5384 94.0652 58.3656V57.6744C93.8828 58.0872 93.6044 58.4088 93.23 58.6392C92.8556 58.86 92.4236 58.9704 91.934 58.9704C91.4828 58.9704 91.0652 58.8792 90.6812 58.6968C90.3068 58.5144 90.0092 58.26 89.7884 57.9336C89.5676 57.6072 89.4572 57.2472 89.4572 56.8536C89.4572 56.3256 89.5916 55.9176 89.8604 55.6296C90.1292 55.332 90.5708 55.1208 91.1852 54.996C91.7996 54.8616 92.654 54.7944 93.7484 54.7944H94.0652V54.3192C94.0652 53.7432 93.9452 53.3208 93.7052 53.052C93.4748 52.7832 93.0956 52.6488 92.5676 52.6488C91.9148 52.6488 91.2524 52.8264 90.5804 53.1816C90.3212 53.3448 90.1388 53.4264 90.0332 53.4264C89.918 53.4264 89.822 53.3832 89.7452 53.2968C89.6684 53.2104 89.63 53.1 89.63 52.9656C89.63 52.8312 89.6684 52.716 89.7452 52.62C89.8316 52.5144 89.966 52.4088 90.1484 52.3032C90.4844 52.1112 90.8636 51.9624 91.286 51.8568C91.718 51.7416 92.1452 51.684 92.5676 51.684ZM92.0924 58.0488C92.6684 58.0488 93.1388 57.8568 93.5036 57.4728C93.878 57.0792 94.0652 56.5752 94.0652 55.9608V55.5432H93.806C92.9612 55.5432 92.318 55.5816 91.8764 55.6584C91.4348 55.7256 91.118 55.8456 90.926 56.0184C90.7436 56.1816 90.6524 56.4264 90.6524 56.7528C90.6524 57.1272 90.7868 57.4392 91.0556 57.6888C91.334 57.9288 91.6796 58.0488 92.0924 58.0488ZM102.232 58.9704C101.58 58.9704 100.999 58.8216 100.49 58.524C99.9907 58.2264 99.6019 57.804 99.3235 57.2568C99.0547 56.7096 98.9203 56.076 98.9203 55.356C98.9203 54.636 99.0595 53.9976 99.3379 53.4408C99.6259 52.884 100.024 52.452 100.533 52.1448C101.042 51.8376 101.628 51.684 102.29 51.684C102.655 51.684 103.015 51.7368 103.37 51.8424C103.735 51.9384 104.052 52.0824 104.32 52.2744C104.493 52.3896 104.613 52.5048 104.68 52.62C104.757 52.7256 104.796 52.8456 104.796 52.98C104.796 53.1144 104.757 53.2248 104.68 53.3112C104.613 53.3976 104.522 53.4408 104.407 53.4408C104.34 53.4408 104.268 53.4216 104.191 53.3832C104.114 53.3448 104.047 53.3064 103.989 53.268C103.941 53.2296 103.908 53.2056 103.888 53.196C103.639 53.0328 103.399 52.9032 103.168 52.8072C102.948 52.7112 102.674 52.6632 102.348 52.6632C101.647 52.6632 101.1 52.9032 100.706 53.3832C100.322 53.8536 100.13 54.5112 100.13 55.356C100.13 56.2008 100.322 56.8536 100.706 57.3144C101.1 57.7752 101.647 58.0056 102.348 58.0056C102.674 58.0056 102.952 57.9576 103.183 57.8616C103.423 57.7656 103.663 57.636 103.903 57.4728C104.008 57.4056 104.109 57.348 104.205 57.3C104.301 57.252 104.383 57.228 104.45 57.228C104.556 57.228 104.642 57.2712 104.709 57.3576C104.786 57.444 104.824 57.5544 104.824 57.6888C104.824 57.8136 104.791 57.9288 104.724 58.0344C104.656 58.1304 104.532 58.2408 104.349 58.3656C104.08 58.548 103.754 58.6968 103.37 58.812C102.996 58.9176 102.616 58.9704 102.232 58.9704ZM113.83 57.948C113.984 58.092 114.061 58.2456 114.061 58.4088C114.061 58.5528 114.008 58.6776 113.902 58.7832C113.806 58.8888 113.686 58.9416 113.542 58.9416C113.417 58.9416 113.288 58.884 113.153 58.7688L109.395 55.5288V58.3656C109.395 58.548 109.337 58.692 109.222 58.7976C109.117 58.8936 108.982 58.9416 108.819 58.9416C108.646 58.9416 108.502 58.8936 108.387 58.7976C108.281 58.692 108.229 58.548 108.229 58.3656V49.2216C108.229 49.0392 108.281 48.9 108.387 48.804C108.502 48.6984 108.646 48.6456 108.819 48.6456C108.982 48.6456 109.117 48.6984 109.222 48.804C109.337 48.9 109.395 49.0392 109.395 49.2216V55.068L112.837 51.9144C112.952 51.7992 113.081 51.7416 113.225 51.7416C113.369 51.7416 113.494 51.7944 113.6 51.9C113.705 52.0056 113.758 52.1304 113.758 52.2744C113.758 52.4376 113.691 52.5816 113.557 52.7064L110.72 55.2408L113.83 57.948ZM118.019 58.9416C117.846 58.9416 117.702 58.8936 117.587 58.7976C117.481 58.692 117.429 58.548 117.429 58.3656V52.2888C117.429 52.1064 117.481 51.9672 117.587 51.8712C117.702 51.7656 117.846 51.7128 118.019 51.7128C118.192 51.7128 118.331 51.7656 118.437 51.8712C118.542 51.9672 118.595 52.1064 118.595 52.2888V58.3656C118.595 58.5576 118.542 58.7016 118.437 58.7976C118.331 58.8936 118.192 58.9416 118.019 58.9416ZM118.019 50.2008C117.789 50.2008 117.601 50.1336 117.457 49.9992C117.313 49.8648 117.241 49.6872 117.241 49.4664C117.241 49.2552 117.313 49.0824 117.457 48.948C117.601 48.8136 117.789 48.7464 118.019 48.7464C118.249 48.7464 118.437 48.8136 118.581 48.948C118.725 49.0824 118.797 49.2552 118.797 49.4664C118.797 49.6872 118.725 49.8648 118.581 49.9992C118.437 50.1336 118.249 50.2008 118.019 50.2008ZM126.303 51.684C127.983 51.684 128.823 52.6104 128.823 54.4632V58.3656C128.823 58.548 128.771 58.692 128.665 58.7976C128.569 58.8936 128.43 58.9416 128.247 58.9416C128.065 58.9416 127.921 58.8936 127.815 58.7976C127.71 58.692 127.657 58.548 127.657 58.3656V54.5352C127.657 53.8824 127.527 53.4072 127.268 53.1096C127.019 52.812 126.615 52.6632 126.059 52.6632C125.415 52.6632 124.902 52.86 124.518 53.2536C124.134 53.6472 123.942 54.18 123.942 54.852V58.3656C123.942 58.548 123.889 58.692 123.783 58.7976C123.687 58.8936 123.548 58.9416 123.366 58.9416C123.183 58.9416 123.039 58.8936 122.934 58.7976C122.828 58.692 122.775 58.548 122.775 58.3656V52.2888C122.775 52.116 122.828 51.9768 122.934 51.8712C123.039 51.7656 123.183 51.7128 123.366 51.7128C123.539 51.7128 123.673 51.7656 123.769 51.8712C123.875 51.9768 123.927 52.1112 123.927 52.2744V53.0088C124.158 52.5768 124.479 52.2504 124.892 52.0296C125.305 51.7992 125.775 51.684 126.303 51.684ZM138.648 51.7128C138.83 51.7128 138.974 51.7656 139.08 51.8712C139.185 51.9768 139.238 52.116 139.238 52.2888V58.3944C139.238 59.4408 138.969 60.228 138.432 60.756C137.894 61.2936 137.097 61.5624 136.041 61.5624C135.014 61.5624 134.16 61.3608 133.478 60.9576C133.133 60.7656 132.96 60.5448 132.96 60.2952C132.96 60.1608 132.993 60.0504 133.061 59.964C133.137 59.8776 133.233 59.8344 133.349 59.8344C133.445 59.8344 133.617 59.9016 133.867 60.036C134.203 60.2088 134.534 60.348 134.861 60.4536C135.187 60.5592 135.576 60.612 136.027 60.612C136.709 60.612 137.222 60.4296 137.568 60.0648C137.913 59.7096 138.086 59.1864 138.086 58.4952V57.2568C137.885 57.708 137.573 58.0536 137.15 58.2936C136.737 58.5336 136.248 58.6536 135.681 58.6536C135.067 58.6536 134.52 58.5096 134.04 58.2216C133.569 57.9336 133.2 57.5256 132.931 56.9976C132.672 56.4696 132.542 55.86 132.542 55.1688C132.542 54.4776 132.672 53.868 132.931 53.34C133.2 52.812 133.569 52.404 134.04 52.116C134.52 51.828 135.067 51.684 135.681 51.684C136.238 51.684 136.723 51.804 137.136 52.044C137.549 52.284 137.861 52.6248 138.072 53.0664V52.2888C138.072 52.116 138.12 51.9768 138.216 51.8712C138.321 51.7656 138.465 51.7128 138.648 51.7128ZM135.912 57.6888C136.584 57.6888 137.112 57.468 137.496 57.0264C137.88 56.5752 138.072 55.956 138.072 55.1688C138.072 54.3912 137.88 53.7816 137.496 53.34C137.121 52.8888 136.593 52.6632 135.912 52.6632C135.23 52.6632 134.693 52.8888 134.299 53.34C133.915 53.7816 133.723 54.3912 133.723 55.1688C133.723 55.956 133.915 56.5752 134.299 57.0264C134.693 57.468 135.23 57.6888 135.912 57.6888Z" fill="#66727C"/>
<path d="M60.9121 64.0029H34.2418C32.9448 64.0029 31.8896 62.9478 31.8896 61.6507V43.5032C31.8896 42.2061 32.9454 41.151 34.2418 41.151H60.9121C62.2092 41.151 63.2637 42.2061 63.2637 43.5032V61.6507C63.2637 62.9478 62.2092 64.0029 60.9121 64.0029ZM34.2418 42.5443C33.713 42.5443 33.283 42.9744 33.283 43.5032V61.6507C33.283 62.1796 33.713 62.6102 34.2418 62.6102H60.9121C61.4403 62.6102 61.871 62.1796 61.871 61.6507V43.5032C61.871 42.975 61.4403 42.5443 60.9121 42.5443H34.2418Z" fill="#66727C"/>
<path d="M37.3797 45.4893H35.9863V59.664H37.3797V45.4893Z" fill="#66727C"/>
<path d="M40.3723 45.4893H38.979V59.664H40.3723V45.4893Z" fill="#66727C"/>
<path d="M43.3157 45.4893H41.9224V59.664H43.3157V45.4893Z" fill="#66727C"/>
<path d="M45.4441 45.4893H44.0508V59.664H45.4441V45.4893Z" fill="#66727C"/>
<path d="M49.4113 45.4893H48.0186V59.664H49.4113V45.4893Z" fill="#66727C"/>
<path d="M51.0861 45.4893H49.6934V59.664H51.0861V45.4893Z" fill="#66727C"/>
<path d="M53.8341 45.4893H52.4414V59.664H53.8341V45.4893Z" fill="#66727C"/>
<path d="M57.0856 45.4893H55.6929V59.664H57.0856V45.4893Z" fill="#66727C"/>
<path d="M59.6217 45.4893H58.229V59.664H59.6217V45.4893Z" fill="#66727C"/>
<defs>
<filter id="filter0_dd" x="0.327637" y="0" width="174" height="103" filterUnits="userSpaceOnUse" color-interpolation-filters="sRGB">
<feFlood flood-opacity="0" result="BackgroundImageFix"/>
<feColorMatrix in="SourceAlpha" type="matrix" values="0 0 0 0 0 0 0 0 0 0 0 0 0 0 0 0 0 0 127 0"/>
<feOffset dy="-12"/>
<feGaussianBlur stdDeviation="8"/>
<feColorMatrix type="matrix" values="0 0 0 0 1 0 0 0 0 1 0 0 0 0 1 0 0 0 1 0"/>
<feBlend mode="normal" in2="BackgroundImageFix" result="effect1_dropShadow"/>
<feColorMatrix in="SourceAlpha" type="matrix" values="0 0 0 0 0 0 0 0 0 0 0 0 0 0 0 0 0 0 127 0"/>
<feOffset dy="12"/>
<feGaussianBlur stdDeviation="8"/>
<feColorMatrix type="matrix" values="0 0 0 0 0 0 0 0 0 0 0 0 0 0 0 0 0 0 0.3 0"/>
<feBlend mode="normal" in2="effect1_dropShadow" result="effect2_dropShadow"/>
<feBlend mode="normal" in="SourceGraphic" in2="effect2_dropShadow" result="shape"/>
</filter>
</defs>
</svg>
