<svg width="149" height="103" viewBox="0 0 149 103" fill="none" xmlns="http://www.w3.org/2000/svg">
<g filter="url(#filter0_dd)">
<rect x="16.3276" y="28" width="116" height="47" rx="20" fill="#8C9197"/>
<rect x="17.3276" y="29" width="114" height="45" rx="19" stroke="white" stroke-width="2"/>
</g>
<rect x="66.3101" y="65.1957" width="49.4152" height="1.1087" fill="white"/>
<path d="M77.3955 47.4716C77.5779 47.4716 77.7171 47.5292 77.8131 47.6444C77.9187 47.75 77.9715 47.894 77.9715 48.0764V57.1628C77.9715 57.3452 77.9187 57.494 77.8131 57.6092C77.7171 57.7148 77.5779 57.7676 77.3955 57.7676C77.2131 57.7676 77.0691 57.7148 76.9635 57.6092C76.8579 57.494 76.8051 57.3452 76.8051 57.1628V53.0444H70.7283V57.1628C70.7283 57.3452 70.6755 57.494 70.5699 57.6092C70.4643 57.7148 70.3203 57.7676 70.1379 57.7676C69.9555 57.7676 69.8115 57.7148 69.7059 57.6092C69.6099 57.494 69.5619 57.3452 69.5619 57.1628V48.0764C69.5619 47.894 69.6099 47.75 69.7059 47.6444C69.8115 47.5292 69.9555 47.4716 70.1379 47.4716C70.3203 47.4716 70.4643 47.5292 70.5699 47.6444C70.6755 47.75 70.7283 47.894 70.7283 48.0764V52.0364H76.8051V48.0764C76.8051 47.894 76.8579 47.75 76.9635 47.6444C77.0691 47.5292 77.2131 47.4716 77.3955 47.4716ZM85.2104 57.7964C84.548 57.7964 83.9624 57.6476 83.4536 57.35C82.9544 57.0524 82.5656 56.63 82.2872 56.0828C82.0184 55.526 81.884 54.8828 81.884 54.1532C81.884 53.4236 82.0184 52.7852 82.2872 52.238C82.5656 51.6812 82.9544 51.254 83.4536 50.9564C83.9624 50.6588 84.548 50.51 85.2104 50.51C85.8728 50.51 86.4584 50.6588 86.9672 50.9564C87.476 51.254 87.8648 51.6812 88.1336 52.238C88.412 52.7852 88.5512 53.4236 88.5512 54.1532C88.5512 54.8828 88.412 55.526 88.1336 56.0828C87.8648 56.63 87.476 57.0524 86.9672 57.35C86.4584 57.6476 85.8728 57.7964 85.2104 57.7964ZM85.2104 56.8316C85.9016 56.8316 86.4296 56.606 86.7944 56.1548C87.1688 55.694 87.356 55.0268 87.356 54.1532C87.356 53.2988 87.1688 52.6412 86.7944 52.1804C86.42 51.71 85.892 51.4748 85.2104 51.4748C84.5288 51.4748 84.0008 51.71 83.6264 52.1804C83.252 52.6412 83.0648 53.2988 83.0648 54.1532C83.0648 55.0172 83.2472 55.6796 83.612 56.1404C83.9864 56.6012 84.5192 56.8316 85.2104 56.8316ZM100.094 50.51C101.649 50.51 102.427 51.4364 102.427 53.2892V57.1916C102.427 57.374 102.374 57.518 102.268 57.6236C102.163 57.7196 102.023 57.7676 101.851 57.7676C101.678 57.7676 101.534 57.7196 101.419 57.6236C101.313 57.518 101.26 57.374 101.26 57.1916V53.318C101.26 52.6748 101.145 52.2092 100.915 51.9212C100.684 51.6332 100.324 51.4892 99.8347 51.4892C99.2491 51.4892 98.7883 51.686 98.4523 52.0796C98.1163 52.4732 97.9483 53.006 97.9483 53.678V57.1916C97.9483 57.374 97.8907 57.518 97.7755 57.6236C97.6699 57.7196 97.5307 57.7676 97.3579 57.7676C97.1851 57.7676 97.0459 57.7196 96.9403 57.6236C96.8347 57.518 96.7819 57.374 96.7819 57.1916V53.318C96.7819 52.6748 96.6667 52.2092 96.4363 51.9212C96.2059 51.6332 95.8411 51.4892 95.3419 51.4892C94.7659 51.4892 94.3051 51.686 93.9595 52.0796C93.6235 52.4732 93.4555 53.006 93.4555 53.678V57.1916C93.4555 57.374 93.4027 57.518 93.2971 57.6236C93.1915 57.7196 93.0523 57.7676 92.8795 57.7676C92.7067 57.7676 92.5627 57.7196 92.4475 57.6236C92.3419 57.518 92.2891 57.374 92.2891 57.1916V51.1148C92.2891 50.942 92.3419 50.8028 92.4475 50.6972C92.5627 50.5916 92.7067 50.5388 92.8795 50.5388C93.0427 50.5388 93.1771 50.5916 93.2827 50.6972C93.3883 50.7932 93.4411 50.9276 93.4411 51.1004V51.7916C93.6523 51.3788 93.9451 51.062 94.3195 50.8412C94.6939 50.6204 95.1259 50.51 95.6155 50.51C96.7099 50.51 97.4251 50.9708 97.7611 51.8924C97.9627 51.47 98.2699 51.134 98.6827 50.8844C99.0955 50.6348 99.5659 50.51 100.094 50.51ZM111.98 56.0684C112.086 56.0684 112.177 56.1116 112.254 56.198C112.331 56.2844 112.369 56.3948 112.369 56.5292C112.369 56.7692 112.201 56.99 111.865 57.1916C111.52 57.3932 111.155 57.5468 110.771 57.6524C110.387 57.7484 110.012 57.7964 109.648 57.7964C108.563 57.7964 107.704 57.4748 107.07 56.8316C106.446 56.1884 106.134 55.3004 106.134 54.1676C106.134 53.4476 106.273 52.814 106.552 52.2668C106.83 51.71 107.219 51.278 107.718 50.9708C108.227 50.6636 108.803 50.51 109.446 50.51C110.358 50.51 111.083 50.8076 111.62 51.4028C112.158 51.998 112.427 52.8044 112.427 53.822C112.427 54.014 112.388 54.1532 112.312 54.2396C112.235 54.326 112.11 54.3692 111.937 54.3692H107.3C107.387 56.0204 108.169 56.846 109.648 56.846C110.022 56.846 110.344 56.798 110.612 56.702C110.881 56.5964 111.169 56.4572 111.476 56.2844C111.726 56.1404 111.894 56.0684 111.98 56.0684ZM109.46 51.4172C108.846 51.4172 108.352 51.6092 107.977 51.9932C107.612 52.3772 107.396 52.9196 107.329 53.6204H111.404C111.385 52.91 111.208 52.3676 110.872 51.9932C110.536 51.6092 110.065 51.4172 109.46 51.4172Z" fill="white"/>
<g clip-path="url(#clip0)">
<path d="M46.3278 40.648L41.3278 45.194V43H38.3278V47.921L34.6548 51.26L36.0008 52.74L37.3278 51.534V62C37.3278 62.553 37.7758 63 38.3278 63H44.3278V57H48.3278V63H54.3278C54.8798 63 55.3278 62.553 55.3278 62V51.534L56.6548 52.741L58.0008 51.261L46.3278 40.648ZM48.3278 53H44.3278V49H48.3278V53Z" fill="white"/>
</g>
<defs>
<filter id="filter0_dd" x="0.327637" y="0" width="148" height="103" filterUnits="userSpaceOnUse" color-interpolation-filters="sRGB">
<feFlood flood-opacity="0" result="BackgroundImageFix"/>
<feColorMatrix in="SourceAlpha" type="matrix" values="0 0 0 0 0 0 0 0 0 0 0 0 0 0 0 0 0 0 127 0"/>
<feOffset dy="-12"/>
<feGaussianBlur stdDeviation="8"/>
<feColorMatrix type="matrix" values="0 0 0 0 1 0 0 0 0 1 0 0 0 0 1 0 0 0 1 0"/>
<feBlend mode="normal" in2="BackgroundImageFix" result="effect1_dropShadow"/>
<feColorMatrix in="SourceAlpha" type="matrix" values="0 0 0 0 0 0 0 0 0 0 0 0 0 0 0 0 0 0 127 0"/>
<feOffset dy="12"/>
<feGaussianBlur stdDeviation="8"/>
<feColorMatrix type="matrix" values="0 0 0 0 0 0 0 0 0 0 0 0 0 0 0 0 0 0 0.3 0"/>
<feBlend mode="normal" in2="effect1_dropShadow" result="effect2_dropShadow"/>
<feBlend mode="normal" in="SourceGraphic" in2="effect2_dropShadow" result="shape"/>
</filter>
<clipPath id="clip0">
<rect x="34.3276" y="40" width="24" height="24" fill="white"/>
</clipPath>
</defs>
</svg>
