<svg width="175" height="103" viewBox="0 0 175 103" fill="none" xmlns="http://www.w3.org/2000/svg">
<g filter="url(#filter0_dd)">
<rect x="16.3276" y="28" width="142" height="47" rx="20" fill="#EAF0F8"/>
<rect x="17.3276" y="29" width="140" height="45" rx="19" stroke="white" stroke-width="2"/>
</g>
<path opacity="0.8" d="M68.0536 57.8546C67.8712 57.8546 67.7272 57.8018 67.6216 57.6962C67.516 57.581 67.4632 57.4322 67.4632 57.2498V48.2066C67.4632 48.0338 67.516 47.8946 67.6216 47.789C67.7368 47.6834 67.8856 47.6306 68.068 47.6306H71.4808C72.5464 47.6306 73.372 47.8898 73.9576 48.4082C74.5528 48.9266 74.8504 49.661 74.8504 50.6114C74.8504 51.5618 74.5528 52.301 73.9576 52.829C73.3624 53.357 72.5368 53.621 71.4808 53.621H68.644V57.2498C68.644 57.4322 68.5912 57.581 68.4856 57.6962C68.38 57.8018 68.236 57.8546 68.0536 57.8546ZM71.3656 52.6418C72.9112 52.6418 73.684 51.965 73.684 50.6114C73.684 49.277 72.9112 48.6098 71.3656 48.6098H68.644V52.6418H71.3656ZM81.9015 50.6258C82.3047 50.597 82.5063 50.7602 82.5063 51.1154C82.5063 51.269 82.4631 51.3938 82.3767 51.4898C82.2903 51.5762 82.1415 51.629 81.9303 51.6482L81.4983 51.6914C80.8551 51.749 80.3751 51.9794 80.0583 52.3826C79.7511 52.7762 79.5975 53.2418 79.5975 53.7794V57.2786C79.5975 57.4706 79.5447 57.6146 79.4391 57.7106C79.3335 57.8066 79.1943 57.8546 79.0215 57.8546C78.8487 57.8546 78.7047 57.8066 78.5895 57.7106C78.4839 57.605 78.4311 57.461 78.4311 57.2786V51.2018C78.4311 51.0194 78.4887 50.8802 78.6039 50.7842C78.7191 50.6786 78.8583 50.6258 79.0215 50.6258C79.1751 50.6258 79.3047 50.6786 79.4103 50.7842C79.5159 50.8802 79.5687 51.0146 79.5687 51.1874V51.9938C79.7703 51.5714 80.0535 51.2498 80.4183 51.029C80.7927 50.8082 81.2199 50.6786 81.6999 50.6402L81.9015 50.6258ZM88.2758 57.8834C87.6134 57.8834 87.0278 57.7346 86.519 57.437C86.0198 57.1394 85.631 56.717 85.3526 56.1698C85.0838 55.613 84.9494 54.9698 84.9494 54.2402C84.9494 53.5106 85.0838 52.8722 85.3526 52.325C85.631 51.7682 86.0198 51.341 86.519 51.0434C87.0278 50.7458 87.6134 50.597 88.2758 50.597C88.9382 50.597 89.5238 50.7458 90.0326 51.0434C90.5414 51.341 90.9302 51.7682 91.199 52.325C91.4774 52.8722 91.6166 53.5106 91.6166 54.2402C91.6166 54.9698 91.4774 55.613 91.199 56.1698C90.9302 56.717 90.5414 57.1394 90.0326 57.437C89.5238 57.7346 88.9382 57.8834 88.2758 57.8834ZM88.2758 56.9186C88.967 56.9186 89.495 56.693 89.8598 56.2418C90.2342 55.781 90.4214 55.1138 90.4214 54.2402C90.4214 53.3858 90.2342 52.7282 89.8598 52.2674C89.4854 51.797 88.9574 51.5618 88.2758 51.5618C87.5942 51.5618 87.0662 51.797 86.6918 52.2674C86.3174 52.7282 86.1302 53.3858 86.1302 54.2402C86.1302 55.1042 86.3126 55.7666 86.6774 56.2274C87.0518 56.6882 87.5846 56.9186 88.2758 56.9186ZM100.985 47.5586C101.167 47.5586 101.311 47.6114 101.417 47.717C101.523 47.8226 101.575 47.957 101.575 48.1202V57.2786C101.575 57.4514 101.523 57.5906 101.417 57.6962C101.311 57.8018 101.167 57.8546 100.985 57.8546C100.803 57.8546 100.659 57.8018 100.553 57.6962C100.457 57.5906 100.409 57.4514 100.409 57.2786V56.501C100.198 56.9426 99.8857 57.2834 99.4729 57.5234C99.0697 57.7634 98.5945 57.8834 98.0473 57.8834C97.4329 57.8834 96.8905 57.7298 96.4201 57.4226C95.9497 57.1154 95.5849 56.6882 95.3257 56.141C95.0665 55.5842 94.9369 54.941 94.9369 54.2114C94.9369 53.4914 95.0665 52.8578 95.3257 52.3106C95.5849 51.7634 95.9497 51.341 96.4201 51.0434C96.8905 50.7458 97.4329 50.597 98.0473 50.597C98.5945 50.597 99.0697 50.717 99.4729 50.957C99.8857 51.197 100.198 51.5378 100.409 51.9794V48.1202C100.409 47.9474 100.457 47.813 100.553 47.717C100.659 47.6114 100.803 47.5586 100.985 47.5586ZM98.2777 56.9186C98.9593 56.9186 99.4825 56.6882 99.8473 56.2274C100.222 55.757 100.409 55.0946 100.409 54.2402C100.409 53.3858 100.222 52.7282 99.8473 52.2674C99.4825 51.8066 98.9593 51.5762 98.2777 51.5762C97.5961 51.5762 97.0633 51.8066 96.6793 52.2674C96.3049 52.7282 96.1177 53.3762 96.1177 54.2114C96.1177 55.0658 96.3049 55.733 96.6793 56.213C97.0633 56.6834 97.5961 56.9186 98.2777 56.9186ZM111.064 50.6258C111.246 50.6258 111.385 50.6786 111.481 50.7842C111.587 50.8898 111.64 51.029 111.64 51.2018V57.293C111.64 57.4562 111.587 57.5906 111.481 57.6962C111.385 57.8018 111.246 57.8546 111.064 57.8546C110.891 57.8546 110.752 57.8066 110.646 57.7106C110.55 57.605 110.502 57.4706 110.502 57.3074V56.5874C110.281 57.0098 109.969 57.3314 109.566 57.5522C109.173 57.773 108.726 57.8834 108.227 57.8834C107.392 57.8834 106.763 57.653 106.341 57.1922C105.918 56.7218 105.707 56.0306 105.707 55.1186V51.2018C105.707 51.029 105.76 50.8898 105.865 50.7842C105.971 50.6786 106.115 50.6258 106.297 50.6258C106.48 50.6258 106.619 50.6786 106.715 50.7842C106.821 50.8898 106.873 51.029 106.873 51.2018V55.0898C106.873 55.7138 106.998 56.1746 107.248 56.4722C107.497 56.7602 107.891 56.9042 108.429 56.9042C109.043 56.9042 109.537 56.7074 109.912 56.3138C110.286 55.9106 110.473 55.3826 110.473 54.7298V51.2018C110.473 51.029 110.526 50.8898 110.632 50.7842C110.737 50.6786 110.881 50.6258 111.064 50.6258ZM118.702 57.8834C118.049 57.8834 117.468 57.7346 116.96 57.437C116.46 57.1394 116.072 56.717 115.793 56.1698C115.524 55.6226 115.39 54.989 115.39 54.269C115.39 53.549 115.529 52.9106 115.808 52.3538C116.096 51.797 116.494 51.365 117.003 51.0578C117.512 50.7506 118.097 50.597 118.76 50.597C119.124 50.597 119.484 50.6498 119.84 50.7554C120.204 50.8514 120.521 50.9954 120.79 51.1874C120.963 51.3026 121.083 51.4178 121.15 51.533C121.227 51.6386 121.265 51.7586 121.265 51.893C121.265 52.0274 121.227 52.1378 121.15 52.2242C121.083 52.3106 120.992 52.3538 120.876 52.3538C120.809 52.3538 120.737 52.3346 120.66 52.2962C120.584 52.2578 120.516 52.2194 120.459 52.181C120.411 52.1426 120.377 52.1186 120.358 52.109C120.108 51.9458 119.868 51.8162 119.638 51.7202C119.417 51.6242 119.144 51.5762 118.817 51.5762C118.116 51.5762 117.569 51.8162 117.176 52.2962C116.792 52.7666 116.6 53.4242 116.6 54.269C116.6 55.1138 116.792 55.7666 117.176 56.2274C117.569 56.6882 118.116 56.9186 118.817 56.9186C119.144 56.9186 119.422 56.8706 119.652 56.7746C119.892 56.6786 120.132 56.549 120.372 56.3858C120.478 56.3186 120.579 56.261 120.675 56.213C120.771 56.165 120.852 56.141 120.92 56.141C121.025 56.141 121.112 56.1842 121.179 56.2706C121.256 56.357 121.294 56.4674 121.294 56.6018C121.294 56.7266 121.26 56.8418 121.193 56.9474C121.126 57.0434 121.001 57.1538 120.819 57.2786C120.55 57.461 120.224 57.6098 119.84 57.725C119.465 57.8306 119.086 57.8834 118.702 57.8834ZM127.952 56.933C128.288 56.9618 128.456 57.1154 128.456 57.3938C128.456 57.557 128.394 57.6818 128.269 57.7682C128.154 57.845 127.976 57.8738 127.736 57.8546L127.348 57.8258C126.58 57.7682 126.013 57.5378 125.648 57.1346C125.284 56.7314 125.101 56.1218 125.101 55.3058V51.6914H124.136C123.973 51.6914 123.844 51.653 123.748 51.5762C123.661 51.4898 123.618 51.3794 123.618 51.245C123.618 51.101 123.661 50.9858 123.748 50.8994C123.844 50.813 123.973 50.7698 124.136 50.7698H125.101V49.1426C125.101 48.9602 125.154 48.821 125.26 48.725C125.365 48.6194 125.509 48.5666 125.692 48.5666C125.864 48.5666 126.004 48.6194 126.109 48.725C126.215 48.821 126.268 48.9602 126.268 49.1426V50.7698H127.866C128.02 50.7698 128.14 50.813 128.226 50.8994C128.322 50.9858 128.37 51.101 128.37 51.245C128.37 51.3794 128.322 51.4898 128.226 51.5762C128.14 51.653 128.02 51.6914 127.866 51.6914H126.268V55.3634C126.268 55.8914 126.373 56.2754 126.584 56.5154C126.805 56.7458 127.132 56.8754 127.564 56.9042L127.952 56.933ZM133.968 57.8834C133.526 57.8834 133.104 57.8306 132.7 57.725C132.307 57.6194 131.956 57.4706 131.649 57.2786C131.476 57.1634 131.352 57.0578 131.275 56.9618C131.208 56.8562 131.174 56.7314 131.174 56.5874C131.174 56.4626 131.208 56.3618 131.275 56.285C131.352 56.1986 131.448 56.1554 131.563 56.1554C131.678 56.1554 131.846 56.2274 132.067 56.3714C132.355 56.5442 132.638 56.6834 132.916 56.789C133.204 56.885 133.56 56.933 133.982 56.933C134.5 56.933 134.904 56.8418 135.192 56.6594C135.48 56.477 135.624 56.213 135.624 55.8674C135.624 55.6562 135.571 55.4882 135.465 55.3634C135.36 55.229 135.177 55.1138 134.918 55.0178C134.659 54.9122 134.28 54.8066 133.78 54.701C132.936 54.5186 132.331 54.2738 131.966 53.9666C131.601 53.6594 131.419 53.2418 131.419 52.7138C131.419 52.301 131.534 51.9362 131.764 51.6194C131.995 51.3026 132.312 51.053 132.715 50.8706C133.128 50.6882 133.593 50.597 134.112 50.597C134.486 50.597 134.846 50.6498 135.192 50.7554C135.547 50.8514 135.859 50.9906 136.128 51.173C136.454 51.4034 136.617 51.6434 136.617 51.893C136.617 52.0178 136.579 52.1234 136.502 52.2098C136.425 52.2962 136.334 52.3394 136.228 52.3394C136.113 52.3394 135.94 52.2578 135.71 52.0946C135.441 51.9218 135.187 51.7874 134.947 51.6914C134.707 51.5954 134.409 51.5474 134.054 51.5474C133.603 51.5474 133.238 51.6482 132.96 51.8498C132.691 52.0514 132.556 52.3202 132.556 52.6562C132.556 52.8674 132.604 53.0402 132.7 53.1746C132.806 53.2994 132.974 53.4146 133.204 53.5202C133.444 53.6162 133.785 53.7122 134.227 53.8082C134.88 53.9522 135.384 54.1106 135.739 54.2834C136.104 54.4562 136.363 54.6674 136.516 54.917C136.67 55.1666 136.747 55.4834 136.747 55.8674C136.747 56.4722 136.492 56.9618 135.984 57.3362C135.475 57.701 134.803 57.8834 133.968 57.8834Z" fill="#66727C"/>
<g clip-path="url(#clip0)">
<path d="M32.4995 48.5938H55.1558" stroke="#66727C" stroke-width="2" stroke-miterlimit="10"/>
<path d="M43.8276 63.4375L47.7339 48.5938L43.8276 41.9531" stroke="#66727C" stroke-width="2" stroke-miterlimit="10"/>
<path d="M43.8276 41.9531L39.9214 48.5938L43.8276 63.4375" stroke="#66727C" stroke-width="2" stroke-miterlimit="10"/>
<path d="M36.4058 41.9531L39.9214 48.5938" stroke="#66727C" stroke-width="2" stroke-miterlimit="10"/>
<path d="M51.2495 41.9531L47.7339 48.5938" stroke="#66727C" stroke-width="2" stroke-miterlimit="10"/>
<path d="M55.1558 48.5938L43.8276 63.4375L32.4995 48.5938L36.4058 41.9531H51.2495L55.1558 48.5938Z" stroke="#66727C" stroke-width="2" stroke-miterlimit="10" stroke-linecap="square"/>
</g>
<defs>
<filter id="filter0_dd" x="0.327637" y="0" width="174" height="103" filterUnits="userSpaceOnUse" color-interpolation-filters="sRGB">
<feFlood flood-opacity="0" result="BackgroundImageFix"/>
<feColorMatrix in="SourceAlpha" type="matrix" values="0 0 0 0 0 0 0 0 0 0 0 0 0 0 0 0 0 0 127 0"/>
<feOffset dy="-12"/>
<feGaussianBlur stdDeviation="8"/>
<feColorMatrix type="matrix" values="0 0 0 0 1 0 0 0 0 1 0 0 0 0 1 0 0 0 1 0"/>
<feBlend mode="normal" in2="BackgroundImageFix" result="effect1_dropShadow"/>
<feColorMatrix in="SourceAlpha" type="matrix" values="0 0 0 0 0 0 0 0 0 0 0 0 0 0 0 0 0 0 127 0"/>
<feOffset dy="12"/>
<feGaussianBlur stdDeviation="8"/>
<feColorMatrix type="matrix" values="0 0 0 0 0 0 0 0 0 0 0 0 0 0 0 0 0 0 0.3 0"/>
<feBlend mode="normal" in2="effect1_dropShadow" result="effect2_dropShadow"/>
<feBlend mode="normal" in="SourceGraphic" in2="effect2_dropShadow" result="shape"/>
</filter>
<clipPath id="clip0">
<rect x="31.3276" y="40" width="25" height="25" fill="white"/>
</clipPath>
</defs>
</svg>
