<svg width="194" height="111" viewBox="0 0 194 111" fill="none" xmlns="http://www.w3.org/2000/svg">
<g filter="url(#filter0_dd)">
<rect x="16" y="28" width="162" height="55" rx="20" fill="#F61067"/>
<rect x="17" y="29" width="160" height="53" rx="19" stroke="white" stroke-width="2"/>
</g>
<path d="M48.574 61C48.154 61 47.83 60.886 47.602 60.658C47.374 60.43 47.26 60.106 47.26 59.686V49.606C47.26 49.186 47.386 48.85 47.638 48.598C47.89 48.346 48.232 48.22 48.664 48.22C49.096 48.22 49.438 48.346 49.69 48.598C49.942 48.85 50.068 49.186 50.068 49.606V58.714H54.676C55.552 58.714 55.99 59.098 55.99 59.866C55.99 60.622 55.552 61 54.676 61H48.574ZM63.3467 61.144C62.4107 61.144 61.5887 60.958 60.8807 60.586C60.1727 60.202 59.6267 59.668 59.2427 58.984C58.8587 58.288 58.6667 57.472 58.6667 56.536C58.6667 55.6 58.8587 54.79 59.2427 54.106C59.6267 53.41 60.1727 52.876 60.8807 52.504C61.5887 52.132 62.4107 51.946 63.3467 51.946C64.2827 51.946 65.1047 52.132 65.8127 52.504C66.5207 52.876 67.0667 53.41 67.4507 54.106C67.8347 54.79 68.0267 55.6 68.0267 56.536C68.0267 57.472 67.8347 58.288 67.4507 58.984C67.0667 59.668 66.5207 60.202 65.8127 60.586C65.1047 60.958 64.2827 61.144 63.3467 61.144ZM63.3467 59.074C64.6667 59.074 65.3267 58.228 65.3267 56.536C65.3267 55.684 65.1527 55.048 64.8047 54.628C64.4687 54.208 63.9827 53.998 63.3467 53.998C62.0267 53.998 61.3667 54.844 61.3667 56.536C61.3667 58.228 62.0267 59.074 63.3467 59.074ZM79.3487 51.982C79.7567 51.982 80.0807 52.102 80.3207 52.342C80.5727 52.57 80.6987 52.876 80.6987 53.26V60.046C80.6987 61.474 80.2847 62.554 79.4567 63.286C78.6287 64.018 77.4167 64.384 75.8207 64.384C74.4767 64.384 73.3727 64.144 72.5087 63.664C72.2927 63.544 72.1247 63.394 72.0047 63.214C71.8847 63.046 71.8247 62.854 71.8247 62.638C71.8247 62.338 71.8967 62.092 72.0407 61.9C72.1847 61.708 72.3767 61.612 72.6167 61.612C72.7487 61.612 72.9047 61.636 73.0847 61.684C73.2647 61.744 73.4507 61.81 73.6427 61.882C74.0267 62.026 74.3807 62.14 74.7047 62.224C75.0287 62.308 75.3767 62.35 75.7487 62.35C76.5167 62.35 77.0867 62.176 77.4587 61.828C77.8307 61.48 78.0167 60.952 78.0167 60.244V59.272C77.7647 59.728 77.3867 60.088 76.8827 60.352C76.3787 60.616 75.8147 60.748 75.1907 60.748C74.4227 60.748 73.7387 60.568 73.1387 60.208C72.5507 59.848 72.0887 59.338 71.7527 58.678C71.4167 58.006 71.2487 57.232 71.2487 56.356C71.2487 55.48 71.4167 54.712 71.7527 54.052C72.0887 53.38 72.5507 52.864 73.1387 52.504C73.7387 52.132 74.4227 51.946 75.1907 51.946C75.8027 51.946 76.3547 52.078 76.8467 52.342C77.3507 52.594 77.7347 52.948 77.9987 53.404V53.224C77.9987 52.84 78.1187 52.54 78.3587 52.324C78.6107 52.096 78.9407 51.982 79.3487 51.982ZM75.9827 58.678C76.6187 58.678 77.1107 58.474 77.4587 58.066C77.8187 57.658 77.9987 57.088 77.9987 56.356C77.9987 55.624 77.8187 55.054 77.4587 54.646C77.1107 54.226 76.6187 54.016 75.9827 54.016C75.3467 54.016 74.8487 54.226 74.4887 54.646C74.1287 55.054 73.9487 55.624 73.9487 56.356C73.9487 57.088 74.1287 57.658 74.4887 58.066C74.8487 58.474 75.3467 58.678 75.9827 58.678ZM93.4374 61.108C93.0054 61.108 92.6634 60.982 92.4114 60.73C92.1594 60.478 92.0334 60.136 92.0334 59.704V49.606C92.0334 49.186 92.1594 48.85 92.4114 48.598C92.6634 48.346 93.0054 48.22 93.4374 48.22C93.8694 48.22 94.2114 48.346 94.4634 48.598C94.7154 48.85 94.8414 49.186 94.8414 49.606V59.704C94.8414 60.136 94.7154 60.478 94.4634 60.73C94.2114 60.982 93.8694 61.108 93.4374 61.108ZM104.688 51.946C105.744 51.946 106.53 52.258 107.046 52.882C107.562 53.494 107.82 54.424 107.82 55.672V59.83C107.82 60.226 107.694 60.538 107.442 60.766C107.202 60.994 106.872 61.108 106.452 61.108C106.032 61.108 105.702 60.994 105.462 60.766C105.222 60.538 105.102 60.226 105.102 59.83V55.798C105.102 55.198 104.988 54.76 104.76 54.484C104.544 54.208 104.202 54.07 103.734 54.07C103.17 54.07 102.714 54.25 102.366 54.61C102.03 54.97 101.862 55.45 101.862 56.05V59.83C101.862 60.226 101.742 60.538 101.502 60.766C101.262 60.994 100.932 61.108 100.512 61.108C100.092 61.108 99.7556 60.994 99.5036 60.766C99.2636 60.538 99.1436 60.226 99.1436 59.83V53.224C99.1436 52.852 99.2696 52.552 99.5216 52.324C99.7856 52.096 100.122 51.982 100.53 51.982C100.902 51.982 101.202 52.096 101.43 52.324C101.67 52.54 101.79 52.822 101.79 53.17V53.422C102.102 52.942 102.504 52.576 102.996 52.324C103.5 52.072 104.064 51.946 104.688 51.946Z" fill="white"/>
<g clip-path="url(#clip0)">
<path d="M95.104 59.3542L85.854 68.6042L83.6725 66.4227L89.1994 60.8958H71.979V42.3958H75.0623V57.8125H89.1994L83.6725 52.2856L85.854 50.1042L95.104 59.3542ZM149.833 60.125L140.583 69.375L138.402 67.1935L143.929 61.6667H125.167V41.625H128.25V58.5833H143.929L138.402 53.0565L140.583 50.875L149.833 60.125Z" fill="white"/>
</g>
<defs>
<filter id="filter0_dd" x="0" y="0" width="194" height="111" filterUnits="userSpaceOnUse" color-interpolation-filters="sRGB">
<feFlood flood-opacity="0" result="BackgroundImageFix"/>
<feColorMatrix in="SourceAlpha" type="matrix" values="0 0 0 0 0 0 0 0 0 0 0 0 0 0 0 0 0 0 127 0"/>
<feOffset dy="-12"/>
<feGaussianBlur stdDeviation="8"/>
<feColorMatrix type="matrix" values="0 0 0 0 1 0 0 0 0 1 0 0 0 0 1 0 0 0 1 0"/>
<feBlend mode="normal" in2="BackgroundImageFix" result="effect1_dropShadow"/>
<feColorMatrix in="SourceAlpha" type="matrix" values="0 0 0 0 0 0 0 0 0 0 0 0 0 0 0 0 0 0 127 0"/>
<feOffset dy="12"/>
<feGaussianBlur stdDeviation="8"/>
<feColorMatrix type="matrix" values="0 0 0 0 0 0 0 0 0 0 0 0 0 0 0 0 0 0 0.3 0"/>
<feBlend mode="normal" in2="effect1_dropShadow" result="effect2_dropShadow"/>
<feBlend mode="normal" in="SourceGraphic" in2="effect2_dropShadow" result="shape"/>
</filter>
<clipPath id="clip0">
<rect x="119" y="37" width="37" height="37" fill="white"/>
</clipPath>
</defs>
</svg>
