<svg width="248" height="111" viewBox="0 0 248 111" fill="none" xmlns="http://www.w3.org/2000/svg">
<g filter="url(#filter0_dd)">
<rect x="16" y="28" width="216" height="55" rx="20" fill="#8C9197"/>
<rect x="17" y="29" width="214" height="53" rx="19" stroke="white" stroke-width="2"/>
</g>
<path d="M43.6253 61.09C43.2053 61.09 42.8633 60.964 42.5993 60.712C42.3473 60.46 42.2213 60.124 42.2213 59.704V50.596H39.3053C38.4173 50.596 37.9733 50.212 37.9733 49.444C37.9733 48.688 38.4173 48.31 39.3053 48.31H47.9453C48.8333 48.31 49.2773 48.688 49.2773 49.444C49.2773 50.212 48.8333 50.596 47.9453 50.596H45.0293V59.704C45.0293 60.124 44.9033 60.46 44.6513 60.712C44.3993 60.964 44.0573 61.09 43.6253 61.09ZM57.9192 58.372C58.1592 58.372 58.3512 58.468 58.4952 58.66C58.6512 58.852 58.7292 59.098 58.7292 59.398C58.7292 59.602 58.6692 59.794 58.5492 59.974C58.4292 60.142 58.2612 60.286 58.0452 60.406C57.6372 60.622 57.1632 60.802 56.6232 60.946C56.0832 61.078 55.5852 61.144 55.1292 61.144C54.1692 61.144 53.3292 60.958 52.6092 60.586C51.9012 60.214 51.3552 59.686 50.9712 59.002C50.5872 58.306 50.3952 57.49 50.3952 56.554C50.3952 55.654 50.5812 54.856 50.9532 54.16C51.3252 53.464 51.8412 52.924 52.5012 52.54C53.1612 52.144 53.9112 51.946 54.7512 51.946C55.5552 51.946 56.2572 52.126 56.8572 52.486C57.4692 52.834 57.9432 53.338 58.2792 53.998C58.6152 54.646 58.7832 55.408 58.7832 56.284C58.7832 56.548 58.7172 56.752 58.5852 56.896C58.4652 57.028 58.2912 57.094 58.0632 57.094H53.0232C53.1072 57.802 53.3232 58.318 53.6712 58.642C54.0192 58.954 54.5172 59.11 55.1652 59.11C55.5132 59.11 55.8252 59.068 56.1012 58.984C56.3772 58.9 56.6832 58.786 57.0192 58.642C57.1872 58.57 57.3492 58.51 57.5052 58.462C57.6612 58.402 57.7992 58.372 57.9192 58.372ZM54.8232 53.818C54.3072 53.818 53.8932 53.986 53.5812 54.322C53.2692 54.646 53.0832 55.12 53.0232 55.744H56.4972C56.4612 55.108 56.2992 54.628 56.0112 54.304C55.7352 53.98 55.3392 53.818 54.8232 53.818ZM66.4029 51.946C67.6989 51.946 68.6589 52.264 69.2829 52.9C69.9069 53.524 70.2189 54.484 70.2189 55.78V59.848C70.2189 60.244 70.1049 60.556 69.8769 60.784C69.6489 61 69.3309 61.108 68.9229 61.108C68.5389 61.108 68.2269 60.994 67.9869 60.766C67.7589 60.526 67.6449 60.22 67.6449 59.848V59.722C67.4649 60.166 67.1649 60.514 66.7449 60.766C66.3249 61.018 65.8329 61.144 65.2689 61.144C64.6689 61.144 64.1229 61.024 63.6309 60.784C63.1509 60.544 62.7669 60.208 62.4789 59.776C62.2029 59.344 62.0649 58.864 62.0649 58.336C62.0649 57.688 62.2269 57.178 62.5509 56.806C62.8869 56.434 63.4209 56.164 64.1529 55.996C64.8849 55.828 65.8869 55.744 67.1589 55.744H67.6269V55.42C67.6269 54.916 67.5129 54.55 67.2849 54.322C67.0689 54.094 66.7029 53.98 66.1869 53.98C65.6709 53.98 64.9269 54.16 63.9549 54.52C63.6789 54.652 63.4449 54.718 63.2529 54.718C62.9889 54.718 62.7789 54.628 62.6229 54.448C62.4669 54.256 62.3889 54.01 62.3889 53.71C62.3889 53.47 62.4429 53.272 62.5509 53.116C62.6589 52.96 62.8329 52.816 63.0729 52.684C63.4929 52.456 64.0029 52.276 64.6029 52.144C65.2149 52.012 65.8149 51.946 66.4029 51.946ZM65.8629 59.272C66.3909 59.272 66.8169 59.098 67.1409 58.75C67.4649 58.39 67.6269 57.928 67.6269 57.364V57.058H67.3209C66.3489 57.058 65.6649 57.136 65.2689 57.292C64.8849 57.448 64.6929 57.73 64.6929 58.138C64.6929 58.474 64.8009 58.75 65.0169 58.966C65.2449 59.17 65.5269 59.272 65.8629 59.272ZM85.141 51.946C86.101 51.946 86.839 52.24 87.355 52.828C87.871 53.404 88.129 54.352 88.129 55.672V59.83C88.129 60.25 88.003 60.568 87.751 60.784C87.499 61 87.175 61.108 86.779 61.108C86.395 61.108 86.071 61 85.807 60.784C85.543 60.568 85.411 60.25 85.411 59.83V55.636C85.411 55.06 85.309 54.658 85.105 54.43C84.913 54.19 84.613 54.07 84.205 54.07C83.701 54.07 83.299 54.244 82.999 54.592C82.699 54.94 82.549 55.426 82.549 56.05V59.83C82.549 60.25 82.423 60.568 82.171 60.784C81.919 61 81.595 61.108 81.199 61.108C80.815 61.108 80.491 61 80.227 60.784C79.963 60.568 79.831 60.25 79.831 59.83V55.636C79.831 55.06 79.729 54.658 79.525 54.43C79.333 54.19 79.033 54.07 78.625 54.07C78.121 54.07 77.719 54.244 77.419 54.592C77.119 54.94 76.969 55.426 76.969 56.05V59.83C76.969 60.25 76.837 60.568 76.573 60.784C76.321 61 76.003 61.108 75.619 61.108C75.235 61.108 74.911 61 74.647 60.784C74.383 60.568 74.251 60.25 74.251 59.83V53.224C74.251 52.828 74.383 52.522 74.647 52.306C74.923 52.09 75.253 51.982 75.637 51.982C75.997 51.982 76.297 52.09 76.537 52.306C76.777 52.51 76.897 52.798 76.897 53.17V53.35C77.185 52.894 77.557 52.546 78.013 52.306C78.481 52.066 79.009 51.946 79.597 51.946C80.233 51.946 80.767 52.078 81.199 52.342C81.643 52.594 81.985 53.008 82.225 53.584C82.501 53.08 82.891 52.684 83.395 52.396C83.911 52.096 84.493 51.946 85.141 51.946ZM100.734 61C100.314 61 99.9902 60.886 99.7622 60.658C99.5342 60.43 99.4202 60.106 99.4202 59.686V49.606C99.4202 49.186 99.5462 48.85 99.7982 48.598C100.05 48.346 100.392 48.22 100.824 48.22C101.256 48.22 101.598 48.346 101.85 48.598C102.102 48.85 102.228 49.186 102.228 49.606V58.714H106.836C107.712 58.714 108.15 59.098 108.15 59.866C108.15 60.622 107.712 61 106.836 61H100.734ZM115.507 61.144C114.571 61.144 113.749 60.958 113.041 60.586C112.333 60.202 111.787 59.668 111.403 58.984C111.019 58.288 110.827 57.472 110.827 56.536C110.827 55.6 111.019 54.79 111.403 54.106C111.787 53.41 112.333 52.876 113.041 52.504C113.749 52.132 114.571 51.946 115.507 51.946C116.443 51.946 117.265 52.132 117.973 52.504C118.681 52.876 119.227 53.41 119.611 54.106C119.995 54.79 120.187 55.6 120.187 56.536C120.187 57.472 119.995 58.288 119.611 58.984C119.227 59.668 118.681 60.202 117.973 60.586C117.265 60.958 116.443 61.144 115.507 61.144ZM115.507 59.074C116.827 59.074 117.487 58.228 117.487 56.536C117.487 55.684 117.313 55.048 116.965 54.628C116.629 54.208 116.143 53.998 115.507 53.998C114.187 53.998 113.527 54.844 113.527 56.536C113.527 58.228 114.187 59.074 115.507 59.074ZM131.509 51.982C131.917 51.982 132.241 52.102 132.481 52.342C132.733 52.57 132.859 52.876 132.859 53.26V60.046C132.859 61.474 132.445 62.554 131.617 63.286C130.789 64.018 129.577 64.384 127.981 64.384C126.637 64.384 125.533 64.144 124.669 63.664C124.453 63.544 124.285 63.394 124.165 63.214C124.045 63.046 123.985 62.854 123.985 62.638C123.985 62.338 124.057 62.092 124.201 61.9C124.345 61.708 124.537 61.612 124.777 61.612C124.909 61.612 125.065 61.636 125.245 61.684C125.425 61.744 125.611 61.81 125.803 61.882C126.187 62.026 126.541 62.14 126.865 62.224C127.189 62.308 127.537 62.35 127.909 62.35C128.677 62.35 129.247 62.176 129.619 61.828C129.991 61.48 130.177 60.952 130.177 60.244V59.272C129.925 59.728 129.547 60.088 129.043 60.352C128.539 60.616 127.975 60.748 127.351 60.748C126.583 60.748 125.899 60.568 125.299 60.208C124.711 59.848 124.249 59.338 123.913 58.678C123.577 58.006 123.409 57.232 123.409 56.356C123.409 55.48 123.577 54.712 123.913 54.052C124.249 53.38 124.711 52.864 125.299 52.504C125.899 52.132 126.583 51.946 127.351 51.946C127.963 51.946 128.515 52.078 129.007 52.342C129.511 52.594 129.895 52.948 130.159 53.404V53.224C130.159 52.84 130.279 52.54 130.519 52.324C130.771 52.096 131.101 51.982 131.509 51.982ZM128.143 58.678C128.779 58.678 129.271 58.474 129.619 58.066C129.979 57.658 130.159 57.088 130.159 56.356C130.159 55.624 129.979 55.054 129.619 54.646C129.271 54.226 128.779 54.016 128.143 54.016C127.507 54.016 127.009 54.226 126.649 54.646C126.289 55.054 126.109 55.624 126.109 56.356C126.109 57.088 126.289 57.658 126.649 58.066C127.009 58.474 127.507 58.678 128.143 58.678ZM145.598 61.108C145.166 61.108 144.824 60.982 144.572 60.73C144.32 60.478 144.194 60.136 144.194 59.704V49.606C144.194 49.186 144.32 48.85 144.572 48.598C144.824 48.346 145.166 48.22 145.598 48.22C146.03 48.22 146.372 48.346 146.624 48.598C146.876 48.85 147.002 49.186 147.002 49.606V59.704C147.002 60.136 146.876 60.478 146.624 60.73C146.372 60.982 146.03 61.108 145.598 61.108ZM156.848 51.946C157.904 51.946 158.69 52.258 159.206 52.882C159.722 53.494 159.98 54.424 159.98 55.672V59.83C159.98 60.226 159.854 60.538 159.602 60.766C159.362 60.994 159.032 61.108 158.612 61.108C158.192 61.108 157.862 60.994 157.622 60.766C157.382 60.538 157.262 60.226 157.262 59.83V55.798C157.262 55.198 157.148 54.76 156.92 54.484C156.704 54.208 156.362 54.07 155.894 54.07C155.33 54.07 154.874 54.25 154.526 54.61C154.19 54.97 154.022 55.45 154.022 56.05V59.83C154.022 60.226 153.902 60.538 153.662 60.766C153.422 60.994 153.092 61.108 152.672 61.108C152.252 61.108 151.916 60.994 151.664 60.766C151.424 60.538 151.304 60.226 151.304 59.83V53.224C151.304 52.852 151.43 52.552 151.682 52.324C151.946 52.096 152.282 51.982 152.69 51.982C153.062 51.982 153.362 52.096 153.59 52.324C153.83 52.54 153.95 52.822 153.95 53.17V53.422C154.262 52.942 154.664 52.576 155.156 52.324C155.66 52.072 156.224 51.946 156.848 51.946Z" fill="white"/>
<path d="M209.75 40.5294H204.5C204.082 40.5294 203.751 40.8499 203.75 41.2431C203.744 42.8539 201.817 44.0468 200.016 42.8941C199.452 42.5327 199.235 41.8939 199.25 41.2515C199.259 40.8541 198.92 40.5294 198.5 40.5294H189.5C189.082 40.5294 188.752 40.8499 188.75 41.2431C188.744 42.8539 186.817 44.0468 185.017 42.8941C184.453 42.5327 184.235 41.8939 184.25 41.2515C184.259 40.8541 183.92 40.5294 183.5 40.5294H178.25C177.421 40.5294 176.75 41.1612 176.75 41.9412V65.9412C176.75 66.7212 177.421 67.3529 178.25 67.3529H209.75C210.579 67.3529 211.25 66.7212 211.25 65.9412V41.9412C211.25 41.1612 210.579 40.5294 209.75 40.5294ZM188 49C189.657 49 191 50.2642 191 51.8235C191 53.3828 189.657 54.6471 188 54.6471C186.343 54.6471 185 53.3828 185 51.8235C185 50.2642 186.343 49 188 49ZM182.75 60.2941C182.75 57.9548 184.764 56.0588 187.25 56.0588H188.75C191.236 56.0588 193.25 57.9548 193.25 60.2941H182.75ZM204.5 58.8823H197.75C197.336 58.8823 197 58.5661 197 58.1765C197 57.7868 197.336 57.4706 197.75 57.4706H204.5C204.914 57.4706 205.25 57.7868 205.25 58.1765C205.25 58.5661 204.914 58.8823 204.5 58.8823ZM204.5 53.2353H197.75C197.336 53.2353 197 52.9191 197 52.5294C197 52.1398 197.336 51.8235 197.75 51.8235H204.5C204.914 51.8235 205.25 52.1398 205.25 52.5294C205.25 52.9191 204.914 53.2353 204.5 53.2353Z" fill="white"/>
<defs>
<filter id="filter0_dd" x="0" y="0" width="248" height="111" filterUnits="userSpaceOnUse" color-interpolation-filters="sRGB">
<feFlood flood-opacity="0" result="BackgroundImageFix"/>
<feColorMatrix in="SourceAlpha" type="matrix" values="0 0 0 0 0 0 0 0 0 0 0 0 0 0 0 0 0 0 127 0"/>
<feOffset dy="-12"/>
<feGaussianBlur stdDeviation="8"/>
<feColorMatrix type="matrix" values="0 0 0 0 1 0 0 0 0 1 0 0 0 0 1 0 0 0 1 0"/>
<feBlend mode="normal" in2="BackgroundImageFix" result="effect1_dropShadow"/>
<feColorMatrix in="SourceAlpha" type="matrix" values="0 0 0 0 0 0 0 0 0 0 0 0 0 0 0 0 0 0 127 0"/>
<feOffset dy="12"/>
<feGaussianBlur stdDeviation="8"/>
<feColorMatrix type="matrix" values="0 0 0 0 0 0 0 0 0 0 0 0 0 0 0 0 0 0 0.3 0"/>
<feBlend mode="normal" in2="effect1_dropShadow" result="effect2_dropShadow"/>
<feBlend mode="normal" in="SourceGraphic" in2="effect2_dropShadow" result="shape"/>
</filter>
</defs>
</svg>
