<svg class="icon" style="width: 1em; height: 1em;vertical-align: middle;fill: currentColor;overflow: hidden;" viewBox="0 0 1024 1024" version="1.1" xmlns="http://www.w3.org/2000/svg"><path d="M939.58144 156.83584l-409.6-153.6a51.712 51.712 0 0 0-35.96288 0l-409.6 153.6a51.2 51.2 0 0 0 0 95.90784l409.6 153.6a51.32288 51.32288 0 0 0 35.96288 0l409.6-153.6a51.2 51.2 0 0 0 0-95.90784zM512 1024a51.69152 51.69152 0 0 1-17.98144-3.25632l-409.6-153.6A51.2 51.2 0 0 1 51.2 819.2V409.6a51.2 51.2 0 0 1 102.4 0v374.08768l358.4 134.41024 358.4-134.41024V409.6a51.2 51.2 0 1 1 102.4 0v409.6a51.2 51.2 0 0 1-33.21856 47.94368l-409.6 153.6a51.69152 51.69152 0 0 1-17.98144 3.25632z" /></svg>