<svg width="198" height="111" viewBox="0 0 198 111" fill="none" xmlns="http://www.w3.org/2000/svg">
<g filter="url(#filter0_dd)">
<rect x="16" y="28" width="166" height="55" rx="20" fill="#8C9197"/>
<rect x="17" y="29" width="164" height="53" rx="19" stroke="white" stroke-width="2"/>
</g>
<path d="M42.286 62C42.082 62 41.908 61.94 41.764 61.82C41.632 61.688 41.566 61.52 41.566 61.316V49.976C41.566 49.748 41.632 49.568 41.764 49.436C41.896 49.292 42.076 49.22 42.304 49.22C42.532 49.22 42.712 49.292 42.844 49.436C42.976 49.568 43.042 49.748 43.042 49.976V60.74H48.856C49.072 60.74 49.24 60.794 49.36 60.902C49.48 61.01 49.54 61.166 49.54 61.37C49.54 61.574 49.48 61.73 49.36 61.838C49.24 61.946 49.072 62 48.856 62H42.286ZM56.6891 62.126C55.8611 62.126 55.1291 61.94 54.4931 61.568C53.8691 61.196 53.3831 60.668 53.0351 59.984C52.6991 59.288 52.5311 58.484 52.5311 57.572C52.5311 56.66 52.6991 55.862 53.0351 55.178C53.3831 54.482 53.8691 53.948 54.4931 53.576C55.1291 53.204 55.8611 53.018 56.6891 53.018C57.5171 53.018 58.2491 53.204 58.8851 53.576C59.5211 53.948 60.0071 54.482 60.3431 55.178C60.6911 55.862 60.8651 56.66 60.8651 57.572C60.8651 58.484 60.6911 59.288 60.3431 59.984C60.0071 60.668 59.5211 61.196 58.8851 61.568C58.2491 61.94 57.5171 62.126 56.6891 62.126ZM56.6891 60.92C57.5531 60.92 58.2131 60.638 58.6691 60.074C59.1371 59.498 59.3711 58.664 59.3711 57.572C59.3711 56.504 59.1371 55.682 58.6691 55.106C58.2011 54.518 57.5411 54.224 56.6891 54.224C55.8371 54.224 55.1771 54.518 54.7091 55.106C54.2411 55.682 54.0071 56.504 54.0071 57.572C54.0071 58.652 54.2351 59.48 54.6911 60.056C55.1591 60.632 55.8251 60.92 56.6891 60.92ZM72.1475 53.054C72.3755 53.054 72.5555 53.12 72.6875 53.252C72.8195 53.384 72.8855 53.558 72.8855 53.774V61.406C72.8855 62.714 72.5495 63.698 71.8775 64.358C71.2055 65.03 70.2095 65.366 68.8895 65.366C67.6055 65.366 66.5375 65.114 65.6855 64.61C65.2535 64.37 65.0375 64.094 65.0375 63.782C65.0375 63.614 65.0795 63.476 65.1635 63.368C65.2595 63.26 65.3795 63.206 65.5235 63.206C65.6435 63.206 65.8595 63.29 66.1715 63.458C66.5915 63.674 67.0055 63.848 67.4135 63.98C67.8215 64.112 68.3075 64.178 68.8715 64.178C69.7235 64.178 70.3655 63.95 70.7975 63.494C71.2295 63.05 71.4455 62.396 71.4455 61.532V59.984C71.1935 60.548 70.8035 60.98 70.2755 61.28C69.7595 61.58 69.1475 61.73 68.4395 61.73C67.6715 61.73 66.9875 61.55 66.3875 61.19C65.7995 60.83 65.3375 60.32 65.0015 59.66C64.6775 59 64.5155 58.238 64.5155 57.374C64.5155 56.51 64.6775 55.748 65.0015 55.088C65.3375 54.428 65.7995 53.918 66.3875 53.558C66.9875 53.198 67.6715 53.018 68.4395 53.018C69.1355 53.018 69.7415 53.168 70.2575 53.468C70.7735 53.768 71.1635 54.194 71.4275 54.746V53.774C71.4275 53.558 71.4875 53.384 71.6075 53.252C71.7395 53.12 71.9195 53.054 72.1475 53.054ZM68.7275 60.524C69.5675 60.524 70.2275 60.248 70.7075 59.696C71.1875 59.132 71.4275 58.358 71.4275 57.374C71.4275 56.402 71.1875 55.64 70.7075 55.088C70.2395 54.524 69.5795 54.242 68.7275 54.242C67.8755 54.242 67.2035 54.524 66.7115 55.088C66.2315 55.64 65.9915 56.402 65.9915 57.374C65.9915 58.358 66.2315 59.132 66.7115 59.696C67.2035 60.248 67.8755 60.524 68.7275 60.524ZM89.751 62.144C88.575 62.144 87.549 61.88 86.673 61.352C85.809 60.824 85.143 60.074 84.675 59.102C84.207 58.13 83.973 56.984 83.973 55.664C83.973 54.332 84.201 53.18 84.657 52.208C85.125 51.224 85.791 50.474 86.655 49.958C87.531 49.43 88.563 49.166 89.751 49.166C90.939 49.166 91.965 49.43 92.829 49.958C93.705 50.474 94.371 51.224 94.827 52.208C95.295 53.18 95.529 54.326 95.529 55.646C95.529 56.966 95.295 58.118 94.827 59.102C94.359 60.074 93.687 60.824 92.811 61.352C91.947 61.88 90.927 62.144 89.751 62.144ZM89.751 60.884C91.095 60.884 92.139 60.434 92.883 59.534C93.639 58.622 94.017 57.326 94.017 55.646C94.017 53.966 93.645 52.676 92.901 51.776C92.157 50.876 91.107 50.426 89.751 50.426C88.407 50.426 87.357 50.882 86.601 51.794C85.857 52.694 85.485 53.978 85.485 55.646C85.485 57.314 85.857 58.604 86.601 59.516C87.357 60.428 88.407 60.884 89.751 60.884ZM106.631 53.054C106.859 53.054 107.033 53.12 107.153 53.252C107.285 53.384 107.351 53.558 107.351 53.774V61.388C107.351 61.592 107.285 61.76 107.153 61.892C107.033 62.024 106.859 62.09 106.631 62.09C106.415 62.09 106.241 62.03 106.109 61.91C105.989 61.778 105.929 61.61 105.929 61.406V60.506C105.653 61.034 105.263 61.436 104.759 61.712C104.267 61.988 103.709 62.126 103.085 62.126C102.041 62.126 101.255 61.838 100.727 61.262C100.199 60.674 99.9351 59.81 99.9351 58.67V53.774C99.9351 53.558 100.001 53.384 100.133 53.252C100.265 53.12 100.445 53.054 100.673 53.054C100.901 53.054 101.075 53.12 101.195 53.252C101.327 53.384 101.393 53.558 101.393 53.774V58.634C101.393 59.414 101.549 59.99 101.861 60.362C102.173 60.722 102.665 60.902 103.337 60.902C104.105 60.902 104.723 60.656 105.191 60.164C105.659 59.66 105.893 59 105.893 58.184V53.774C105.893 53.558 105.959 53.384 106.091 53.252C106.223 53.12 106.403 53.054 106.631 53.054ZM116.111 60.938C116.531 60.974 116.741 61.166 116.741 61.514C116.741 61.718 116.663 61.874 116.507 61.982C116.363 62.078 116.141 62.114 115.841 62.09L115.355 62.054C114.395 61.982 113.687 61.694 113.231 61.19C112.775 60.686 112.547 59.924 112.547 58.904V54.386H111.341C111.137 54.386 110.975 54.338 110.855 54.242C110.747 54.134 110.693 53.996 110.693 53.828C110.693 53.648 110.747 53.504 110.855 53.396C110.975 53.288 111.137 53.234 111.341 53.234H112.547V51.2C112.547 50.972 112.613 50.798 112.745 50.678C112.877 50.546 113.057 50.48 113.285 50.48C113.501 50.48 113.675 50.546 113.807 50.678C113.939 50.798 114.005 50.972 114.005 51.2V53.234H116.003C116.195 53.234 116.345 53.288 116.453 53.396C116.573 53.504 116.633 53.648 116.633 53.828C116.633 53.996 116.573 54.134 116.453 54.242C116.345 54.338 116.195 54.386 116.003 54.386H114.005V58.976C114.005 59.636 114.137 60.116 114.401 60.416C114.677 60.704 115.085 60.866 115.625 60.902L116.111 60.938Z" fill="white"/>
<path d="M151.27 49.6667L147.5 53.4365L143.73 49.6667L141.667 51.7303L145.436 55.5001L141.667 59.2699L143.73 61.3334L147.5 57.5636L151.27 61.3334L153.333 59.2699L149.563 55.5001L153.333 51.7303L151.27 49.6667ZM147.5 40.9167C139.443 40.9167 132.917 47.4428 132.917 55.5001C132.917 63.5574 139.443 70.0834 147.5 70.0834C155.557 70.0834 162.083 63.5574 162.083 55.5001C162.083 47.4428 155.557 40.9167 147.5 40.9167ZM147.5 67.1668C141.069 67.1668 135.833 61.9313 135.833 55.5001C135.833 49.0688 141.069 43.8334 147.5 43.8334C153.931 43.8334 159.167 49.0688 159.167 55.5001C159.167 61.9313 153.931 67.1668 147.5 67.1668Z" fill="white"/>
<defs>
<filter id="filter0_dd" x="0" y="0" width="198" height="111" filterUnits="userSpaceOnUse" color-interpolation-filters="sRGB">
<feFlood flood-opacity="0" result="BackgroundImageFix"/>
<feColorMatrix in="SourceAlpha" type="matrix" values="0 0 0 0 0 0 0 0 0 0 0 0 0 0 0 0 0 0 127 0"/>
<feOffset dy="-12"/>
<feGaussianBlur stdDeviation="8"/>
<feColorMatrix type="matrix" values="0 0 0 0 1 0 0 0 0 1 0 0 0 0 1 0 0 0 1 0"/>
<feBlend mode="normal" in2="BackgroundImageFix" result="effect1_dropShadow"/>
<feColorMatrix in="SourceAlpha" type="matrix" values="0 0 0 0 0 0 0 0 0 0 0 0 0 0 0 0 0 0 127 0"/>
<feOffset dy="12"/>
<feGaussianBlur stdDeviation="8"/>
<feColorMatrix type="matrix" values="0 0 0 0 0 0 0 0 0 0 0 0 0 0 0 0 0 0 0.3 0"/>
<feBlend mode="normal" in2="effect1_dropShadow" result="effect2_dropShadow"/>
<feBlend mode="normal" in="SourceGraphic" in2="effect2_dropShadow" result="shape"/>
</filter>
</defs>
</svg>
