<svg width="216" height="111" viewBox="0 0 216 111" fill="none" xmlns="http://www.w3.org/2000/svg">
<g filter="url(#filter0_dd)">
<rect x="16" y="28" width="184" height="55" rx="20" fill="#8C9197"/>
<rect x="17" y="29" width="182" height="53" rx="19" stroke="white" stroke-width="2"/>
</g>
<path d="M58.664 59.218C58.844 59.482 58.934 59.74 58.934 59.992C58.934 60.328 58.796 60.604 58.52 60.82C58.256 61.036 57.944 61.144 57.584 61.144C57.356 61.144 57.134 61.09 56.918 60.982C56.702 60.874 56.522 60.706 56.378 60.478L54.002 56.95C53.798 56.638 53.582 56.416 53.354 56.284C53.126 56.14 52.838 56.068 52.49 56.068H51.032V59.704C51.032 60.136 50.906 60.478 50.654 60.73C50.414 60.982 50.084 61.108 49.664 61.108C49.232 61.108 48.89 60.982 48.638 60.73C48.386 60.478 48.26 60.136 48.26 59.704V49.624C48.26 49.204 48.374 48.88 48.602 48.652C48.83 48.424 49.154 48.31 49.574 48.31H54.092C55.58 48.31 56.702 48.64 57.458 49.3C58.226 49.948 58.61 50.89 58.61 52.126C58.61 53.098 58.34 53.908 57.8 54.556C57.26 55.204 56.498 55.63 55.514 55.834C55.874 55.906 56.192 56.05 56.468 56.266C56.756 56.47 57.032 56.77 57.296 57.166L58.664 59.218ZM53.678 53.944C54.482 53.944 55.064 53.806 55.424 53.53C55.784 53.242 55.964 52.798 55.964 52.198C55.964 51.586 55.784 51.142 55.424 50.866C55.064 50.59 54.482 50.452 53.678 50.452H50.996V53.944H53.678ZM69.7571 58.372C69.9971 58.372 70.1891 58.468 70.3331 58.66C70.4891 58.852 70.5671 59.098 70.5671 59.398C70.5671 59.602 70.5071 59.794 70.3871 59.974C70.2671 60.142 70.0991 60.286 69.8831 60.406C69.4751 60.622 69.0011 60.802 68.4611 60.946C67.9211 61.078 67.4231 61.144 66.9671 61.144C66.0071 61.144 65.1671 60.958 64.4471 60.586C63.7391 60.214 63.1931 59.686 62.8091 59.002C62.4251 58.306 62.2331 57.49 62.2331 56.554C62.2331 55.654 62.4191 54.856 62.7911 54.16C63.1631 53.464 63.6791 52.924 64.3391 52.54C64.9991 52.144 65.7491 51.946 66.5891 51.946C67.3931 51.946 68.0951 52.126 68.6951 52.486C69.3071 52.834 69.7811 53.338 70.1171 53.998C70.4531 54.646 70.6211 55.408 70.6211 56.284C70.6211 56.548 70.5551 56.752 70.4231 56.896C70.3031 57.028 70.1291 57.094 69.9011 57.094H64.8611C64.9451 57.802 65.1611 58.318 65.5091 58.642C65.8571 58.954 66.3551 59.11 67.0031 59.11C67.3511 59.11 67.6631 59.068 67.9391 58.984C68.2151 58.9 68.5211 58.786 68.8571 58.642C69.0251 58.57 69.1871 58.51 69.3431 58.462C69.4991 58.402 69.6371 58.372 69.7571 58.372ZM66.6611 53.818C66.1451 53.818 65.7311 53.986 65.4191 54.322C65.1071 54.646 64.9211 55.12 64.8611 55.744H68.3351C68.2991 55.108 68.1371 54.628 67.8491 54.304C67.5731 53.98 67.1771 53.818 66.6611 53.818ZM81.9308 51.982C82.3388 51.982 82.6628 52.102 82.9028 52.342C83.1548 52.57 83.2808 52.876 83.2808 53.26V60.046C83.2808 61.474 82.8668 62.554 82.0388 63.286C81.2108 64.018 79.9988 64.384 78.4028 64.384C77.0588 64.384 75.9548 64.144 75.0908 63.664C74.8748 63.544 74.7068 63.394 74.5868 63.214C74.4668 63.046 74.4067 62.854 74.4067 62.638C74.4067 62.338 74.4788 62.092 74.6228 61.9C74.7668 61.708 74.9588 61.612 75.1988 61.612C75.3308 61.612 75.4868 61.636 75.6668 61.684C75.8468 61.744 76.0328 61.81 76.2248 61.882C76.6088 62.026 76.9628 62.14 77.2868 62.224C77.6108 62.308 77.9588 62.35 78.3308 62.35C79.0988 62.35 79.6688 62.176 80.0408 61.828C80.4128 61.48 80.5988 60.952 80.5988 60.244V59.272C80.3468 59.728 79.9688 60.088 79.4648 60.352C78.9608 60.616 78.3968 60.748 77.7728 60.748C77.0048 60.748 76.3208 60.568 75.7208 60.208C75.1328 59.848 74.6708 59.338 74.3348 58.678C73.9988 58.006 73.8308 57.232 73.8308 56.356C73.8308 55.48 73.9988 54.712 74.3348 54.052C74.6708 53.38 75.1328 52.864 75.7208 52.504C76.3208 52.132 77.0048 51.946 77.7728 51.946C78.3848 51.946 78.9368 52.078 79.4288 52.342C79.9328 52.594 80.3168 52.948 80.5808 53.404V53.224C80.5808 52.84 80.7008 52.54 80.9408 52.324C81.1928 52.096 81.5228 51.982 81.9308 51.982ZM78.5648 58.678C79.2008 58.678 79.6928 58.474 80.0408 58.066C80.4008 57.658 80.5808 57.088 80.5808 56.356C80.5808 55.624 80.4008 55.054 80.0408 54.646C79.6928 54.226 79.2008 54.016 78.5648 54.016C77.9288 54.016 77.4308 54.226 77.0708 54.646C76.7108 55.054 76.5308 55.624 76.5308 56.356C76.5308 57.088 76.7108 57.658 77.0708 58.066C77.4308 58.474 77.9288 58.678 78.5648 58.678ZM88.7401 61.108C88.3441 61.108 88.0141 61 87.7501 60.784C87.4981 60.568 87.3721 60.25 87.3721 59.83V53.26C87.3721 52.84 87.5041 52.522 87.7681 52.306C88.0321 52.09 88.3561 51.982 88.7401 51.982C89.1241 51.982 89.4421 52.09 89.6941 52.306C89.9581 52.522 90.0901 52.84 90.0901 53.26V59.83C90.0901 60.25 89.9581 60.568 89.6941 60.784C89.4421 61 89.1241 61.108 88.7401 61.108ZM88.7401 50.542C88.2601 50.542 87.8821 50.422 87.6061 50.182C87.3301 49.93 87.1921 49.594 87.1921 49.174C87.1921 48.754 87.3301 48.424 87.6061 48.184C87.8821 47.944 88.2601 47.824 88.7401 47.824C89.2081 47.824 89.5801 47.95 89.8561 48.202C90.1441 48.442 90.2881 48.766 90.2881 49.174C90.2881 49.594 90.1501 49.93 89.8741 50.182C89.5981 50.422 89.2201 50.542 88.7401 50.542ZM97.519 61.144C96.787 61.144 96.151 61.084 95.611 60.964C95.071 60.844 94.597 60.652 94.189 60.388C94.009 60.28 93.871 60.136 93.775 59.956C93.679 59.776 93.631 59.572 93.631 59.344C93.631 59.068 93.709 58.84 93.865 58.66C94.021 58.468 94.213 58.372 94.441 58.372C94.597 58.372 94.753 58.402 94.909 58.462C95.065 58.51 95.227 58.57 95.395 58.642C95.731 58.798 96.061 58.924 96.385 59.02C96.709 59.104 97.111 59.146 97.591 59.146C98.011 59.146 98.335 59.08 98.563 58.948C98.803 58.816 98.923 58.636 98.923 58.408C98.923 58.24 98.869 58.108 98.761 58.012C98.665 57.904 98.479 57.808 98.203 57.724C97.927 57.64 97.489 57.538 96.889 57.418C95.821 57.214 95.053 56.908 94.585 56.5C94.117 56.092 93.883 55.522 93.883 54.79C93.883 54.25 94.045 53.764 94.369 53.332C94.705 52.9 95.161 52.564 95.737 52.324C96.313 52.072 96.961 51.946 97.681 51.946C98.197 51.946 98.701 52.012 99.193 52.144C99.685 52.276 100.123 52.462 100.507 52.702C100.879 52.93 101.065 53.266 101.065 53.71C101.065 53.998 100.987 54.238 100.831 54.43C100.675 54.622 100.483 54.718 100.255 54.718C99.979 54.718 99.649 54.61 99.265 54.394C98.965 54.238 98.689 54.124 98.437 54.052C98.197 53.968 97.909 53.926 97.573 53.926C97.201 53.926 96.907 53.998 96.691 54.142C96.475 54.274 96.367 54.46 96.367 54.7C96.367 54.952 96.493 55.144 96.745 55.276C96.997 55.408 97.483 55.54 98.203 55.672C99.007 55.828 99.637 56.02 100.093 56.248C100.549 56.464 100.879 56.74 101.083 57.076C101.287 57.412 101.389 57.838 101.389 58.354C101.389 59.206 101.035 59.884 100.327 60.388C99.631 60.892 98.695 61.144 97.519 61.144ZM109.769 59.128C110.129 59.152 110.393 59.242 110.561 59.398C110.729 59.554 110.813 59.782 110.813 60.082C110.813 60.43 110.675 60.694 110.399 60.874C110.123 61.054 109.727 61.126 109.211 61.09L108.707 61.054C106.607 60.886 105.557 59.788 105.557 57.76V54.196H104.837C104.441 54.196 104.141 54.112 103.937 53.944C103.733 53.764 103.631 53.512 103.631 53.188C103.631 52.852 103.733 52.6 103.937 52.432C104.141 52.252 104.441 52.162 104.837 52.162H105.557V50.758C105.557 50.362 105.677 50.05 105.917 49.822C106.169 49.594 106.505 49.48 106.925 49.48C107.345 49.48 107.675 49.594 107.915 49.822C108.155 50.05 108.275 50.362 108.275 50.758V52.162H109.535C110.351 52.162 110.759 52.504 110.759 53.188C110.759 53.512 110.657 53.764 110.453 53.944C110.249 54.112 109.943 54.196 109.535 54.196H108.275V57.958C108.275 58.318 108.359 58.594 108.527 58.786C108.695 58.966 108.941 59.068 109.265 59.092L109.769 59.128ZM120.907 58.372C121.147 58.372 121.339 58.468 121.483 58.66C121.639 58.852 121.717 59.098 121.717 59.398C121.717 59.602 121.657 59.794 121.537 59.974C121.417 60.142 121.249 60.286 121.033 60.406C120.625 60.622 120.151 60.802 119.611 60.946C119.071 61.078 118.573 61.144 118.117 61.144C117.157 61.144 116.317 60.958 115.597 60.586C114.889 60.214 114.343 59.686 113.959 59.002C113.575 58.306 113.383 57.49 113.383 56.554C113.383 55.654 113.569 54.856 113.941 54.16C114.313 53.464 114.829 52.924 115.489 52.54C116.149 52.144 116.899 51.946 117.739 51.946C118.543 51.946 119.245 52.126 119.845 52.486C120.457 52.834 120.931 53.338 121.267 53.998C121.603 54.646 121.771 55.408 121.771 56.284C121.771 56.548 121.705 56.752 121.573 56.896C121.453 57.028 121.279 57.094 121.051 57.094H116.011C116.095 57.802 116.311 58.318 116.659 58.642C117.007 58.954 117.505 59.11 118.153 59.11C118.501 59.11 118.813 59.068 119.089 58.984C119.365 58.9 119.671 58.786 120.007 58.642C120.175 58.57 120.337 58.51 120.493 58.462C120.649 58.402 120.787 58.372 120.907 58.372ZM117.811 53.818C117.295 53.818 116.881 53.986 116.569 54.322C116.257 54.646 116.071 55.12 116.011 55.744H119.485C119.449 55.108 119.287 54.628 118.999 54.304C118.723 53.98 118.327 53.818 117.811 53.818ZM130.687 51.982C131.047 51.958 131.329 52.042 131.533 52.234C131.749 52.414 131.857 52.69 131.857 53.062C131.857 53.458 131.761 53.752 131.569 53.944C131.377 54.136 131.035 54.256 130.543 54.304L130.003 54.358C129.343 54.43 128.863 54.646 128.563 55.006C128.275 55.366 128.131 55.828 128.131 56.392V59.83C128.131 60.25 127.999 60.568 127.735 60.784C127.483 61 127.165 61.108 126.781 61.108C126.385 61.108 126.055 61 125.791 60.784C125.539 60.568 125.413 60.25 125.413 59.83V53.224C125.413 52.828 125.545 52.522 125.809 52.306C126.073 52.09 126.391 51.982 126.763 51.982C127.123 51.982 127.423 52.09 127.663 52.306C127.903 52.51 128.023 52.798 128.023 53.17V53.656C128.239 53.14 128.563 52.744 128.995 52.468C129.439 52.192 129.919 52.036 130.435 52L130.687 51.982Z" fill="white"/>
<path d="M173.833 55.5L171.307 52.9737L161.292 62.9712V41.1666H157.708V62.9712L147.711 52.9558L145.167 55.5L159.5 69.8333L173.833 55.5Z" fill="white"/>
<defs>
<filter id="filter0_dd" x="0" y="0" width="216" height="111" filterUnits="userSpaceOnUse" color-interpolation-filters="sRGB">
<feFlood flood-opacity="0" result="BackgroundImageFix"/>
<feColorMatrix in="SourceAlpha" type="matrix" values="0 0 0 0 0 0 0 0 0 0 0 0 0 0 0 0 0 0 127 0"/>
<feOffset dy="-12"/>
<feGaussianBlur stdDeviation="8"/>
<feColorMatrix type="matrix" values="0 0 0 0 1 0 0 0 0 1 0 0 0 0 1 0 0 0 1 0"/>
<feBlend mode="normal" in2="BackgroundImageFix" result="effect1_dropShadow"/>
<feColorMatrix in="SourceAlpha" type="matrix" values="0 0 0 0 0 0 0 0 0 0 0 0 0 0 0 0 0 0 127 0"/>
<feOffset dy="12"/>
<feGaussianBlur stdDeviation="8"/>
<feColorMatrix type="matrix" values="0 0 0 0 0 0 0 0 0 0 0 0 0 0 0 0 0 0 0.3 0"/>
<feBlend mode="normal" in2="effect1_dropShadow" result="effect2_dropShadow"/>
<feBlend mode="normal" in="SourceGraphic" in2="effect2_dropShadow" result="shape"/>
</filter>
</defs>
</svg>
